<?xml version="1.0" encoding="utf-8"?>
<!-- Generator: Adobe Illustrator 28.0.0, SVG Export Plug-In . SVG Version: 6.00 Build 0)  -->
<svg version="1.1" id="Ebene_1" xmlns="http://www.w3.org/2000/svg" xmlns:xlink="http://www.w3.org/1999/xlink" x="0px" y="0px"
	 viewBox="0 0 102 93" style="enable-background:new 0 0 102 93;" xml:space="preserve">
<style type="text/css">
	.st0{fill:#FFFFFF;}
</style>
<path class="st0" d="M44,73.2c-0.2,0-0.3,0-0.5-0.1c-0.6-0.3-0.9-1-0.7-1.6l2.8-6.7c0.3-0.6,1-0.9,1.6-0.7c0.6,0.3,0.9,1,0.7,1.6
	l-2.8,6.7C45,72.9,44.5,73.2,44,73.2z M29.2,73.1c-0.3,0-0.6-0.1-0.9-0.4c-0.5-0.5-0.5-1.3,0-1.8l11.1-11c0.5-0.5,1.3-0.5,1.8,0
	c0.5,0.5,0.5,1.3,0,1.8L30,72.7C29.8,72.9,29.5,73.1,29.2,73.1z M29.1,58.3c-0.5,0-1-0.3-1.2-0.8c-0.3-0.6,0-1.4,0.7-1.6l6.6-2.7
	c0.6-0.3,1.4,0,1.6,0.7c0.3,0.6,0,1.4-0.7,1.6l-6.6,2.7C29.4,58.2,29.3,58.3,29.1,58.3z M35.7,39.9c-0.2,0-0.3,0-0.5-0.1l-6.6-2.7
	c-0.6-0.3-0.9-1-0.7-1.6c0.3-0.6,1-0.9,1.6-0.7l6.6,2.7c0.6,0.3,0.9,1,0.7,1.6C36.6,39.6,36.2,39.9,35.7,39.9z M40.3,33.4
	c-0.3,0-0.6-0.1-0.9-0.4L28.3,22c-0.5-0.5-0.5-1.3,0-1.8c0.5-0.5,1.3-0.5,1.8,0l11.1,11c0.5,0.5,0.5,1.3,0,1.8
	C40.9,33.3,40.6,33.4,40.3,33.4z M46.8,28.9c-0.5,0-1-0.3-1.2-0.8l-2.8-6.7c-0.3-0.6,0-1.4,0.7-1.6c0.6-0.3,1.4,0,1.6,0.7l2.8,6.7
	c0.3,0.6,0,1.4-0.7,1.6C47.1,28.8,47,28.9,46.8,28.9z M62.5,28.9c-0.2,0-0.3,0-0.5-0.1c-0.6-0.3-0.9-1-0.7-1.6l2.8-6.7
	c0.3-0.6,1-0.9,1.6-0.7c0.6,0.3,0.9,1,0.7,1.6l-2.8,6.7C63.4,28.6,63,28.9,62.5,28.9z"/>
<g>
	<path class="st0" d="M54.7,62.4c-6.3,0-12.3-3.7-14.8-9.8c-1.6-3.9-1.6-8.3,0-12.2c1.6-3.9,4.7-7,8.6-8.6c4.1-1.7,8.8-1.6,12.9,0.3
		l-1.1,2.3c-3.4-1.6-7.4-1.7-10.9-0.3c-3.3,1.4-5.9,4-7.3,7.3c-1.4,3.3-1.4,7,0,10.3c2.8,6.7,10.5,10,17.3,7.4l0.9,2.3
		C58.6,62.1,56.6,62.4,54.7,62.4z"/>
	<path class="st0" d="M54.6,83.8c-0.7,0-1.2-0.6-1.2-1.2l0-15.6c0-0.7,0.6-1.2,1.2-1.2s1.2,0.6,1.2,1.2l0,15.6
		C55.9,83.2,55.3,83.8,54.6,83.8z M18.6,47.8c-0.7,0-1.2-0.6-1.2-1.2s0.6-1.2,1.2-1.2l15.6,0c0.7,0,1.2,0.6,1.2,1.2
		s-0.6,1.2-1.2,1.2L18.6,47.8z M54.6,27.4c-0.7,0-1.2-0.6-1.2-1.2V10.5c0-0.7,0.6-1.2,1.2-1.2s1.2,0.6,1.2,1.2v15.6
		C55.9,26.8,55.3,27.4,54.6,27.4z"/>
	<path class="st0" d="M71.3,80.9c-5.6,0-10.2-4.6-10.2-10.2c0-2.4,0.7-4.6,2.1-6.3l0-26.2c0-4.3,3.5-7.8,7.8-7.8h0.6
		c4.3,0,7.8,3.5,7.8,7.8v26.2c1.4,1.8,2.1,3.9,2.1,6.3C81.5,76.4,76.9,80.9,71.3,80.9z M71,33c-2.9,0-5.3,2.4-5.3,5.3l0,26.7
		c0,0.3-0.1,0.6-0.3,0.8c-1.2,1.3-1.8,3.1-1.8,5.1c0,4.2,3.4,7.7,7.7,7.7c4.2,0,7.7-3.4,7.7-7.7c0-2-0.6-3.7-1.8-5.1
		c-0.2-0.2-0.3-0.5-0.3-0.8V38.2c0-2.9-2.4-5.3-5.3-5.3H71z"/>
	<path class="st0" d="M71.3,70.7c-0.7,0-1.2-0.6-1.2-1.2V41.3c0-0.7,0.6-1.2,1.2-1.2s1.2,0.6,1.2,1.2v28.2
		C72.5,70.1,72,70.7,71.3,70.7z M83.4,59.4h-4.8c-0.7,0-1.2-0.6-1.2-1.2s0.6-1.2,1.2-1.2h4.8c0.7,0,1.2,0.6,1.2,1.2
		S84.1,59.4,83.4,59.4z M83.4,51.5h-4.8c-0.7,0-1.2-0.6-1.2-1.2s0.6-1.2,1.2-1.2h4.8c0.7,0,1.2,0.6,1.2,1.2S84.1,51.5,83.4,51.5z
		 M83.4,43.6h-4.8c-0.7,0-1.2-0.6-1.2-1.2s0.6-1.2,1.2-1.2h4.8c0.7,0,1.2,0.6,1.2,1.2S84.1,43.6,83.4,43.6z"/>
	<path class="st0" d="M72.8,70.6c0,0.8-0.7,1.5-1.5,1.5c-0.8,0-1.5-0.7-1.5-1.5s0.7-1.5,1.5-1.5C72.1,69,72.8,69.7,72.8,70.6"/>
	<path class="st0" d="M71.3,73.3c-1.5,0-2.8-1.2-2.8-2.8s1.2-2.8,2.8-2.8c1.5,0,2.8,1.2,2.8,2.8S72.8,73.3,71.3,73.3z M71.3,70.3
		c-0.2,0-0.3,0.1-0.3,0.3c0,0.3,0.6,0.3,0.6,0C71.6,70.4,71.4,70.3,71.3,70.3z"/>
</g>
</svg>
