<?xml version="1.0" encoding="utf-8"?>
<!-- Generator: Adobe Illustrator 28.0.0, SVG Export Plug-In . SVG Version: 6.00 Build 0)  -->
<svg version="1.1" id="Ebene_1" xmlns="http://www.w3.org/2000/svg" xmlns:xlink="http://www.w3.org/1999/xlink" x="0px" y="0px"
	 viewBox="0 0 102 93" style="enable-background:new 0 0 102 93;" xml:space="preserve">
<style type="text/css">
	.st0{fill:#FFFFFF;}
</style>
<g>
	<path class="st0" d="M84.8,72.1h-65c-0.7,0-1.2-0.6-1.2-1.2s0.6-1.2,1.2-1.2h59.4l0-45.7H30.2c-0.7,0-1.2-0.6-1.2-1.2
		s0.6-1.2,1.2-1.2h50.2c0.3,0,0.6,0.1,0.9,0.4s0.4,0.6,0.4,0.9l0,46.9h3.2c0.7,0,1.2,0.6,1.2,1.2S85.5,72.1,84.8,72.1z M25.3,67.8
		L25.3,67.8c-0.7,0-1.2-0.6-1.2-1.2l0-43.9c0-0.7,0.6-1.2,1.2-1.2l0,0c0.7,0,1.2,0.6,1.2,1.2l0,43.9C26.6,67.3,26,67.8,25.3,67.8z"
		/>
	<path class="st0" d="M72.1,67.6H65v-3.2h7.2V67.6z M61.7,67.6h-7.2v-3.2h7.2V67.6z M51,67.6h-7.2v-3.2H51V67.6z M40.7,67.6h-7.2
		v-3.2h7.2V67.6z M77.5,63.4h-7.2v-3.2h7.2V63.4z M66.8,63.4h-7.2v-3.2h7.2V63.4z M56.4,63.4h-7.2v-3.2h7.2V63.4z M46.1,63.4h-7.2
		v-3.2h7.2V63.4z M35.4,63.4h-7.2v-3.2h7.2V63.4z M72.1,58.9H65v-3.2h7.2V58.9z M61.7,58.9h-7.2v-3.2h7.2V58.9z M51,58.9h-7.2v-3.2
		H51V58.9z M40.7,58.9h-7.2v-3.2h7.2V58.9z M77.5,54.7h-7.2v-3.2h7.2V54.7z M66.8,54.7h-7.2v-3.2h7.2V54.7z M56.4,54.7h-7.2v-3.2
		h7.2V54.7z M46.1,54.7h-7.2v-3.2h7.2V54.7z M35.4,54.7h-7.2v-3.2h7.2V54.7z M72.1,50.4H65v-3.2h7.2V50.4z M61.7,50.4h-7.2v-3.2h7.2
		V50.4z M51,50.4h-7.2v-3.2H51V50.4z M40.7,50.4h-7.2v-3.2h7.2V50.4z M77.5,46.2h-7.2V43h7.2V46.2z M66.8,46.2h-7.2V43h7.2V46.2z
		 M56.4,46.2h-7.2V43h7.2V46.2z M46.1,46.2h-7.2V43h7.2V46.2z M35.4,46.2h-7.2V43h7.2V46.2z M72.1,42.2H65v-3.2h7.2V42.2z
		 M61.7,42.2h-7.2v-3.2h7.2V42.2z M51,42.2h-7.2v-3.2H51V42.2z M40.7,42.2h-7.2v-3.2h7.2V42.2z M77.5,38h-7.2v-3.2h7.2V38z M66.8,38
		h-7.2v-3.2h7.2V38z M56.4,38h-7.2v-3.2h7.2V38z M46.1,38h-7.2v-3.2h7.2V38z M35.4,38h-7.2v-3.2h7.2V38z M72.1,33.8H65v-3.2h7.2
		V33.8z M61.7,33.8h-7.2v-3.2h7.2V33.8z M51,33.8h-7.2v-3.2H51V33.8z M40.7,33.8h-7.2v-3.2h7.2V33.8z M77.5,29.6h-7.2v-3.2h7.2V29.6
		z M66.8,29.6h-7.2v-3.2h7.2V29.6z M56.4,29.6h-7.2v-3.2h7.2V29.6z M46.1,29.6h-7.2v-3.2h7.2V29.6z M35.4,29.6h-7.2v-3.2h7.2V29.6z"
		/>
</g>
</svg>
