<?xml version="1.0" encoding="utf-8"?>
<!-- Generator: Adobe Illustrator 28.0.0, SVG Export Plug-In . SVG Version: 6.00 Build 0)  -->
<svg version="1.1" id="Ebene_1" xmlns="http://www.w3.org/2000/svg" xmlns:xlink="http://www.w3.org/1999/xlink" x="0px" y="0px"
	 viewBox="0 0 102 93" style="enable-background:new 0 0 102 93;" xml:space="preserve">
<style type="text/css">
	.st0{fill:#FFFFFF;}
</style>
<g>
	<path class="st0" d="M52.3,78c-0.7,0-1.3,0-2-0.1c-0.7,0-1.2-0.6-1.2-1.3c0-0.7,0.6-1.2,1.3-1.2c0.6,0,1.2,0.1,1.8,0.1
		c4.1,0,8.1-0.8,11.8-2.5c0.6-0.3,1.4,0,1.7,0.6c0.3,0.6,0,1.4-0.6,1.7C61.1,77.1,56.8,78,52.3,78z M46.5,77.5c-0.1,0-0.2,0-0.2,0
		c-3.1-0.6-6.1-1.7-8.8-3.2c-0.6-0.3-0.8-1.1-0.5-1.7c0.3-0.6,1.1-0.8,1.7-0.5c2.6,1.4,5.3,2.4,8.1,2.9c0.7,0.1,1.1,0.8,1,1.5
		C47.6,77.1,47.1,77.5,46.5,77.5z M67.8,73.7c-0.4,0-0.8-0.2-1.1-0.6c-0.4-0.6-0.2-1.4,0.4-1.7c8.7-5.3,13.9-14.5,13.9-24.6
		c0-0.7,0.6-1.2,1.2-1.2h2.6l-6.5-10.1l-6.5,10.1h2.7c0.7,0,1.2,0.6,1.2,1.2c0,13-10.5,23.5-23.5,23.5c-7.7,0-14.9-3.8-19.3-10
		c-0.4-0.6-0.3-1.3,0.3-1.7c0.6-0.4,1.3-0.3,1.7,0.3c3.9,5.6,10.4,9,17.2,9c11.2,0,20.3-8.8,21-19.8h-3.8c-0.5,0-0.9-0.3-1.1-0.7
		s-0.2-0.9,0-1.3l8.8-13.6c0.2-0.4,0.6-0.6,1-0.6l0,0c0.4,0,0.8,0.2,1,0.6l8.8,13.6c0.2,0.4,0.3,0.9,0,1.3C88,47.8,87.6,48,87.2,48
		h-3.6c-0.4,10.5-6,20-15.1,25.5C68.3,73.7,68,73.7,67.8,73.7z M35.1,72.6c-0.2,0-0.5-0.1-0.7-0.2c-1.9-1.3-3.7-2.9-5.2-4.6
		c-0.5-0.5-0.4-1.3,0.1-1.8c0.5-0.5,1.3-0.4,1.8,0.1c1.5,1.6,3.1,3,4.8,4.3c0.6,0.4,0.7,1.2,0.3,1.7C35.9,72.4,35.5,72.6,35.1,72.6z
		 M26.3,61.7L26.3,61.7c-0.4,0-0.8-0.2-1-0.6l-8.8-13.6c-0.2-0.4-0.3-0.9,0-1.3c0.2-0.4,0.6-0.7,1.1-0.7h3.6
		c0.4-10.5,6-20,15.1-25.5c0.6-0.4,1.4-0.2,1.7,0.4c0.4,0.6,0.2,1.4-0.4,1.7c-8.7,5.3-13.9,14.5-13.9,24.6c0,0.7-0.6,1.2-1.2,1.2
		h-2.6l6.5,10.1L32.8,48h-2.7c-0.7,0-1.2-0.6-1.2-1.2c0-13,10.5-23.5,23.5-23.5c7.7,0,14.9,3.8,19.3,10c0.4,0.6,0.3,1.3-0.3,1.7
		c-0.6,0.4-1.3,0.3-1.7-0.3c-3.9-5.6-10.4-9-17.2-9c-11.2,0-20.3,8.8-21,19.8h3.8c0.5,0,0.9,0.3,1.1,0.7s0.2,0.9,0,1.3l-8.8,13.6
		C27.1,61.4,26.7,61.7,26.3,61.7z M74.6,27.9c-0.3,0-0.7-0.1-0.9-0.4c-1.4-1.6-3.1-3-4.8-4.3c-0.6-0.4-0.7-1.2-0.3-1.7
		s1.2-0.7,1.7-0.3c1.9,1.3,3.7,2.9,5.2,4.6c0.5,0.5,0.4,1.3-0.1,1.8C75.2,27.8,74.9,27.9,74.6,27.9z M66.6,21.6
		c-0.2,0-0.4,0-0.6-0.2c-2.6-1.4-5.3-2.4-8.1-2.9c-0.7-0.1-1.1-0.8-1-1.5c0.1-0.7,0.8-1.1,1.5-1c3.1,0.6,6.1,1.7,8.9,3.2
		c0.6,0.3,0.8,1.1,0.5,1.7C67.5,21.4,67.1,21.6,66.6,21.6z M40,20.6c-0.5,0-0.9-0.3-1.1-0.7c-0.3-0.6,0-1.4,0.6-1.7
		c4-1.8,8.4-2.7,12.8-2.7c0.7,0,1.3,0,2,0.1c0.7,0,1.2,0.6,1.2,1.3c0,0.7-0.6,1.2-1.3,1.2c-0.6,0-1.2-0.1-1.8-0.1
		c-4.1,0-8.1,0.9-11.8,2.5C40.4,20.6,40.2,20.6,40,20.6z"/>
	<path class="st0" d="M52.3,62c-8.3,0-15.1-6.8-15.1-15.1S44,31.8,52.3,31.8s15.1,6.8,15.1,15.1S60.7,62,52.3,62z M52.3,34.3
		c-7,0-12.6,5.7-12.6,12.6c0,7,5.7,12.6,12.6,12.6c7,0,12.6-5.7,12.6-12.6C64.9,39.9,59.3,34.3,52.3,34.3z"/>
</g>
<path class="st0" d="M52.3,60.5c-0.7,0-1.2-0.6-1.2-1.2v-4.4c0-0.7,0.6-1.2,1.2-1.2s1.2,0.6,1.2,1.2v4.4C53.6,60,53,60.5,52.3,60.5z
	 M65.5,48.1h-4.4c-0.7,0-1.2-0.6-1.2-1.2s0.6-1.2,1.2-1.2h4.4c0.7,0,1.2,0.6,1.2,1.2S66.2,48.1,65.5,48.1z M44,48.1h-4.4
	c-0.7,0-1.2-0.6-1.2-1.2s0.6-1.2,1.2-1.2H44c0.7,0,1.2,0.6,1.2,1.2S44.7,48.1,44,48.1z M52.3,40.3c-0.7,0-1.2-0.6-1.2-1.2v-4.4
	c0-0.7,0.6-1.2,1.2-1.2s1.2,0.6,1.2,1.2V39C53.6,39.7,53,40.3,52.3,40.3z"/>
<path class="st0" d="M51,49.6c-0.3,0-0.6-0.1-0.9-0.4l-5.1-5c-0.5-0.5-0.5-1.3,0-1.8c0.5-0.5,1.3-0.5,1.8,0l4.2,4.1l6.8-6.9
	c0.5-0.5,1.3-0.5,1.8,0c0.5,0.5,0.5,1.3,0,1.8l-7.7,7.8C51.7,49.5,51.3,49.6,51,49.6z"/>
</svg>
