<?xml version="1.0" encoding="utf-8"?>
<!-- Generator: Adobe Illustrator 28.0.0, SVG Export Plug-In . SVG Version: 6.00 Build 0)  -->
<svg version="1.1" id="Ebene_1" xmlns="http://www.w3.org/2000/svg" xmlns:xlink="http://www.w3.org/1999/xlink" x="0px" y="0px"
	 viewBox="0 0 102 93" style="enable-background:new 0 0 102 93;" xml:space="preserve">
<style type="text/css">
	.st0{fill:#FFFFFF;}
</style>
<g>
	<path class="st0" d="M72,73.2c-5.6,0-10.2-4.6-10.2-10.2c0-2.4,0.7-4.6,2.1-6.3l0-26.2c0-4.3,3.5-7.8,7.8-7.8h0.6
		c4.3,0,7.8,3.5,7.8,7.8v26.2c1.4,1.8,2.1,3.9,2.1,6.3C82.2,68.7,77.6,73.2,72,73.2z M71.7,25.2c-2.9,0-5.3,2.4-5.3,5.3l0,26.7
		c0,0.3-0.1,0.6-0.3,0.8c-1.2,1.3-1.8,3.1-1.8,5.1c0,4.2,3.4,7.7,7.7,7.7c4.2,0,7.7-3.4,7.7-7.7c0-2-0.6-3.7-1.8-5.1
		c-0.2-0.2-0.3-0.5-0.3-0.8V30.5c0-2.9-2.4-5.3-5.3-5.3H71.7z"/>
	<path class="st0" d="M72,63c-0.7,0-1.2-0.6-1.2-1.2V51.5c0-0.7,0.6-1.2,1.2-1.2s1.2,0.6,1.2,1.2v10.2C73.3,62.4,72.7,63,72,63z
		 M84.1,51.6h-4.8c-0.7,0-1.2-0.6-1.2-1.2s0.6-1.2,1.2-1.2h4.8c0.7,0,1.2,0.6,1.2,1.2S84.8,51.6,84.1,51.6z M84.1,43.8h-4.8
		c-0.7,0-1.2-0.6-1.2-1.2s0.6-1.2,1.2-1.2h4.8c0.7,0,1.2,0.6,1.2,1.2S84.8,43.8,84.1,43.8z M84.1,35.9h-4.8c-0.7,0-1.2-0.6-1.2-1.2
		s0.6-1.2,1.2-1.2h4.8c0.7,0,1.2,0.6,1.2,1.2S84.8,35.9,84.1,35.9z"/>
	<path class="st0" d="M73.5,62.8c0,0.8-0.7,1.5-1.5,1.5c-0.8,0-1.5-0.7-1.5-1.5c0-0.8,0.7-1.5,1.5-1.5C72.9,61.3,73.5,62,73.5,62.8"
		/>
	<path class="st0" d="M72,65.6c-1.5,0-2.8-1.2-2.8-2.8s1.2-2.8,2.8-2.8c1.5,0,2.8,1.2,2.8,2.8S73.5,65.6,72,65.6z M72,62.6
		c-0.2,0-0.3,0.1-0.3,0.3c0,0.3,0.6,0.3,0.6,0C72.3,62.7,72.2,62.6,72,62.6z"/>
	<path class="st0" d="M48.5,75.1c-0.7,0-1.2-0.6-1.2-1.2V63.4l-6.6,6.7c-0.5,0.5-1.3,0.5-1.8,0c-0.5-0.5-0.5-1.3,0-1.8l8.4-8.5v-9.3
		c-1.7-0.3-3.2-1.2-4.2-2.5l-8,4.6l-3.2,11.5c-0.2,0.7-0.9,1.1-1.5,0.9c-0.7-0.2-1.1-0.9-0.9-1.5l2.5-9.1l-9.1,5.2
		c-0.6,0.3-1.4,0.1-1.7-0.5c-0.3-0.6-0.1-1.4,0.5-1.7l9.1-5.2l-9.1-2.4c-0.7-0.2-1.1-0.9-0.9-1.5c0.2-0.7,0.9-1.1,1.5-0.9l11.5,3
		l8-4.6c-0.3-0.8-0.4-1.6-0.4-2.4c0-0.9,0.2-1.7,0.4-2.4l-8-4.6l-11.5,3c-0.7,0.2-1.4-0.2-1.5-0.9c-0.2-0.7,0.2-1.4,0.9-1.5l9.1-2.4
		l-9.1-5.2c-0.6-0.3-0.8-1.1-0.5-1.7c0.3-0.6,1.1-0.8,1.7-0.5l9.1,5.2l-2.5-9.1c-0.2-0.7,0.2-1.4,0.9-1.5c0.7-0.2,1.4,0.2,1.5,0.9
		L35,34.3l8,4.6c1.1-1.3,2.5-2.2,4.2-2.5v-9.3l-8.4-8.5c-0.5-0.5-0.5-1.3,0-1.8c0.5-0.5,1.3-0.5,1.8,0l6.6,6.7V13.1
		c0-0.7,0.6-1.2,1.2-1.2s1.2,0.6,1.2,1.2v10.5l6.6-6.7c0.5-0.5,1.3-0.5,1.8,0c0.5,0.5,0.5,1.3,0,1.8l-8.4,8.5v9.3
		c1.7,0.3,3.2,1.2,4.2,2.5l5.7-3.3c0.6-0.3,1.4-0.1,1.7,0.5c0.3,0.6,0.1,1.4-0.5,1.7l-5.7,3.3c0.3,0.8,0.4,1.6,0.4,2.4
		c0,0.9-0.2,1.7-0.4,2.4l5.9,3.4c0.6,0.3,0.8,1.1,0.5,1.7s-1.1,0.8-1.7,0.5L54,48.1c-1.1,1.3-2.5,2.2-4.2,2.5v9.3l8.4,8.5
		c0.5,0.5,0.5,1.3,0,1.8c-0.5,0.5-1.3,0.5-1.8,0l-6.6-6.7v10.5C49.8,74.6,49.2,75.1,48.5,75.1z M48.5,38.8c-2.6,0-4.7,2.1-4.7,4.7
		s2.1,4.7,4.7,4.7c2.6,0,4.7-2.1,4.7-4.7S51.1,38.8,48.5,38.8z"/>
</g>
</svg>
