<?xml version="1.0" encoding="utf-8"?>
<!-- Generator: Adobe Illustrator 28.0.0, SVG Export Plug-In . SVG Version: 6.00 Build 0)  -->
<svg version="1.1" id="Ebene_1" xmlns="http://www.w3.org/2000/svg" xmlns:xlink="http://www.w3.org/1999/xlink" x="0px" y="0px"
	 viewBox="0 0 295 309" style="enable-background:new 0 0 295 309;" xml:space="preserve">
<style type="text/css">
	.st0{fill:#FFFFFF;}
</style>
<g>
	<path class="st0" d="M204.3,267.5h-76c-11.6,0-22.4-4.2-30.9-11.7H52.8c-2.2,0-4-1.8-4-4s1.8-4,4-4h37.5c-0.7-1-1.4-2.1-2.1-3.2
		c-1.1-1.9-0.5-4.3,1.4-5.5c1.9-1.1,4.3-0.5,5.5,1.4c7.2,11.9,19.7,19.1,33.3,19.1h76c2.9,0,5.2-2.3,5.2-5.1s-2.4-5.1-5.2-5.1h-36.9
		c-2.2,0-4-1.8-4-4s1.8-4,4-4h54.7c2.9,0,5.2-2.3,5.2-5.1c0-2.8-2.4-5.1-5.2-5.1h-48.7c-2.2,0-4-1.8-4-4s1.8-4,4-4H232
		c2.9,0,5.2-2.3,5.2-5.1c0-2.8-2.4-5.1-5.2-5.1h-58.7c-2.2,0-4-1.8-4-4s1.8-4,4-4h48.9c2.9,0,5.2-2.3,5.2-5.1c0-2.8-2.4-5.1-5.2-5.1
		h-22.3c-2.2,0-4-1.8-4-4s1.8-4,4-4h22.3c7.3,0,13.2,5.9,13.2,13.1c0,1.9-0.4,3.7-1.1,5.3c6.2,1.1,11,6.5,11,12.9
		c0,6.5-4.8,11.9-11.1,13c0.7,1.6,1.1,3.4,1.1,5.3c0,7.2-5.9,13.1-13.2,13.1h-5.6c0.7,1.6,1.1,3.3,1.1,5.1
		C217.5,261.6,211.6,267.5,204.3,267.5z M121.4,219.8c-2.2,0-4-1.8-4-4s1.8-4,4-4c15,0,23.6-20.2,23.7-20.4c0.2-0.6,0.6-1.1,1.1-1.5
		c0.7-0.6,1.7-1,2.6-1h23.9c3.2,0,6.6-1.8,9.3-4.9l2.3-3.3c0.5-0.9,0.4-1.9,0.1-2.5c-0.3-0.5-0.6-0.5-0.8-0.5h-34.6l-10.7,18.8
		c-0.7,1.2-2,2-3.4,2c-1.4,0.1-2.7-0.7-3.5-1.8c0,0-3.1-4.8-6.2-9.7c-2.4-3.8-4-6.3-5-8c-6.8,0.8-15.2,8.8-20.5,16.9
		c-0.7,1.1-2,1.8-3.4,1.8H52.8c-2.2,0-4-1.8-4-4s1.8-4,4-4h41.5c6.7-9.6,17.7-19.7,28.5-18.7c1.1,0.1,2,0.6,2.7,1.4
		c0.2,0.2,0.4,0.5,0.5,0.8c0.6,1.1,4.8,7.6,8.6,13.6l8.6-15c0.7-1.2,2-2,3.5-2h37c3.2,0,6.1,1.7,7.8,4.6c1.8,3.2,1.7,7.4-0.3,10.6
		c0,0-0.1,0.1-0.1,0.1l-2.4,3.6c-0.1,0.1-0.2,0.2-0.3,0.3c-4.2,5-9.9,7.8-15.5,7.8h-21.3C148.2,203.2,138.2,219.8,121.4,219.8z
		 M126.4,175.3L126.4,175.3L126.4,175.3z M126.4,175.3C126.4,175.3,126.4,175.3,126.4,175.3C126.4,175.3,126.4,175.3,126.4,175.3z
		 M126.4,175.3C126.4,175.3,126.4,175.3,126.4,175.3C126.4,175.3,126.4,175.3,126.4,175.3z M126.4,175.3
		C126.4,175.3,126.4,175.3,126.4,175.3C126.4,175.3,126.4,175.3,126.4,175.3z M126.4,175.3C126.4,175.3,126.4,175.3,126.4,175.3
		C126.4,175.3,126.4,175.3,126.4,175.3z M126.4,175.2C126.4,175.2,126.4,175.2,126.4,175.2C126.4,175.2,126.4,175.2,126.4,175.2z
		 M126.4,175.2L126.4,175.2C126.4,175.2,126.4,175.2,126.4,175.2z"/>
	<path class="st0" d="M132.5,154.8c-14.4,0-26.3-7.5-32.6-20.4c-8.2-16.6-5-38.3,8-55.2c0,0,0.1-0.1,0.1-0.1
		c10.9-12.9,21-35,21.1-35.3c0.7-1.6,2.5-2.6,4.2-2.3c1.8,0.3,3.1,1.7,3.4,3.4c0,0.3,1.4,8.8,20.9,34.3c13,16.9,16,38.6,7.9,55.2
		c-6.3,12.9-18.2,20.3-32.5,20.4H132.5z M114.1,84.1C103,98.7,100.2,117,107,130.9c4.9,10.1,14.2,15.8,25.4,15.9h0.3
		c11.2,0,20.4-5.8,25.4-15.9c6.8-13.9,4.1-32.3-7.1-46.8c-10.3-13.4-15.9-22.6-18.9-28.6C128.1,63.4,121.4,75.5,114.1,84.1z
		 M123.5,135.1c-0.7,0-1.5-0.2-2.1-0.6c-10.8-6.8-11.1-19.7-11.1-20.3c0-2.2,1.7-4,3.9-4.1c2.2,0,4,1.7,4.1,3.9
		c0,0.2,0.3,9.2,7.3,13.6c1.9,1.2,2.4,3.6,1.3,5.5C126.2,134.5,124.9,135.1,123.5,135.1z"/>
</g>
</svg>
