<?xml version="1.0" encoding="utf-8"?>
<!-- Generator: Adobe Illustrator 28.0.0, SVG Export Plug-In . SVG Version: 6.00 Build 0)  -->
<svg version="1.1" id="Ebene_1" xmlns="http://www.w3.org/2000/svg" xmlns:xlink="http://www.w3.org/1999/xlink" x="0px" y="0px"
	 viewBox="0 0 321 269" style="enable-background:new 0 0 321 269;" xml:space="preserve">
<style type="text/css">
	.st0{fill:#FFFFFF;}
</style>
<g>
	<path class="st0" d="M229.1,251.9c-0.7,0-1.3-0.3-1.7-0.9c-16-25.1-31.3-33.7-62.8-35.6c-1.1-0.1-2-1-1.9-2.1c0.1-1.1,1-2,2.1-1.9
		c27.1,1.6,43.2,8.4,57.4,25.5c-6.2-13.3-19.1-32.6-43.8-39.9c-4.6-1.4-8-2.1-13.7-2.2c-1.1,0-2-0.9-2-2.1s0.9-2,2.1-2
		c6.1,0.1,9.9,0.9,14.8,2.4c41.3,12.3,51.5,56,51.6,56.4c0.2,1-0.3,1.9-1.2,2.3C229.7,251.9,229.4,251.9,229.1,251.9z"/>
	<path class="st0" d="M182.6,251.9H97.9c-1.1,0-2-0.9-2-2s0.9-2,2-2h82.3c-1.6-4.1-8-7.8-16.7-9.3c-1-0.2-1.7-1-1.7-2
		c0-4.7,3.7-77.8,3.8-81c0.1-1,0.9-1.8,1.9-1.9l1.9-0.1c32-3.9,49.7-18.5,55.4-46c1.3-6.4,2-14.1,2-22.2c0-3.7-0.4-7.4-1.2-11
		c-3.6-16-14.7-29.3-31.3-37.6c-18.7-9.3-42.6-11.3-69.1-5.9c-4.7,1-9.1,4-11.5,7.9c-1.6,2.6-2.2,5.4-1.6,7.7
		c0.9,3.4,4.1,4.1,10.3,5.1c2.3,0.4,4.9,0.8,7.6,1.5c8.3,2.2,13.5,0.6,19.5-1.3c4.4-1.4,9.3-3,16-3.2c19.6-0.6,35.1,8.6,41.6,24.5
		c1.8,4.6,2.8,9.7,2.8,15.4c0,9.5-1,23.6-9.8,35.2c-6.2,9-29.9,17-30.9,17.3c-1.1,0.4-2.2-0.2-2.6-1.3c-0.4-1.1,0.2-2.2,1.3-2.6
		c6.5-2.2,24.3-9.2,28.9-15.8c8.1-10.7,9-23.9,9-32.8c0-5.1-0.8-9.8-2.5-13.8c-5.8-14.3-19.8-22.5-37.7-22c-6.1,0.2-10.5,1.6-14.9,3
		c-6.3,2-12.3,3.9-21.7,1.4c-2.5-0.7-4.9-1.1-7.2-1.4c-6.1-1-11.9-2-13.5-8.1c-0.9-3.4-0.2-7.3,2.1-10.9c3.1-4.9,8.3-8.6,14.1-9.7
		c27.5-5.6,52.3-3.5,71.8,6.2c17.7,8.8,29.6,23.1,33.5,40.3c0.9,3.9,1.3,7.9,1.3,11.9c0,8.4-0.7,16.3-2.1,23
		c-6.2,29.5-24.9,45.1-59,49.2l-0.3,0c-0.5,10.7-3.3,66.3-3.7,77.3c11.4,2.4,18.7,8.1,18.7,14.9C184.6,251,183.7,251.9,182.6,251.9z
		"/>
	<path class="st0" d="M227.6,112.4c-0.6,0-1.2-0.3-1.6-0.8c-0.7-0.9-0.5-2.2,0.3-2.8c9.5-7.5,16-16.9,17-24.4h-11.3
		c-1.1,0-2-0.9-2-2s0.9-2,2-2h13.4c1.1,0,2,0.9,2,2c0,11-9.6,22.5-18.7,29.6C228.5,112.2,228,112.4,227.6,112.4z"/>
	<path class="st0" d="M245.5,86.7h-13c-1.1,0-2-0.9-2-2s0.9-2,2-2h11V67.8h-17.4c-1.1,0-2-0.9-2-2s0.9-2,2-2h19.4c1.1,0,2,0.9,2,2
		v19C247.5,85.8,246.6,86.7,245.5,86.7z"/>
	<path class="st0" d="M207.5,86.7h-133c-1.1,0-2-0.9-2-2v-19c0-1.1,0.9-2,2-2h101.7c1.1,0,2,0.9,2,2s-0.9,2-2,2H76.5v14.9h130.9
		c1.1,0,2,0.9,2,2S208.6,86.7,207.5,86.7z"/>
	<path class="st0" d="M145,221.6C145,221.6,145,221.6,145,221.6c-3.5,0-7.2,0-11,0l-5.2,0c-16.8,0-27.1-7-32.9-12.9
		c-7-7.2-11.1-16.8-11.1-26.3c0-13.4,10.1-25.3,29.1-34.5c11.4-5.4,22.6-8.4,26.7-9.3l-0.6-12c-39.4-4.2-67.8-22.6-67.8-44.3
		c0-1.1,0.9-2,2-2h133.1c1.1,0,2,0.9,2,2s-0.9,2-2,2h-131c1.8,19,28.9,35,65.7,38.4c1,0.1,1.8,0.9,1.8,1.9l0.8,15.4
		c0,1-0.6,1.9-1.6,2.1c-0.5,0.1-54.3,11.4-54.3,40.2c0,8.5,3.6,17,9.9,23.5c5.2,5.3,14.6,11.6,29.9,11.6l5.2,0c3.8,0,7.4,0,11,0
		c1.1,0,2,0.9,2,2C147.1,220.7,146.2,221.6,145,221.6z"/>
	<path class="st0" d="M152.2,238.7c-1.1,0-2-0.9-2-2c0-4.1-1-20-2.1-36.6c-0.1,0-0.2,0-0.3,0c-2.3,0-4.6,0-6.9,0
		c-14.8,0.1-27.6,0.2-34.2-6.3c-2.9-2.8-4.3-6.8-4.3-11.8c0-17,29.1-25.7,44.4-27.9c0.6-0.1,1.1,0.1,1.6,0.4
		c0.4,0.4,0.7,0.9,0.7,1.4c0.2,2.9,5.1,71.1,5.1,80.6C154.3,237.8,153.4,238.7,152.2,238.7z M145.3,158.6
		c-19.2,3.2-38.8,12.3-38.8,23.5c0,3.9,1,6.8,3.1,8.9c5.4,5.4,18,5.3,31.3,5.1c2.3,0,4.6,0,7,0c0,0,0,0,0.1,0
		C146.8,180.1,145.7,164.2,145.3,158.6z"/>
</g>
</svg>
