<?xml version="1.0" encoding="utf-8"?>
<!-- Generator: Adobe Illustrator 28.0.0, SVG Export Plug-In . SVG Version: 6.00 Build 0)  -->
<svg version="1.1" id="Ebene_1" xmlns="http://www.w3.org/2000/svg" xmlns:xlink="http://www.w3.org/1999/xlink" x="0px" y="0px"
	 viewBox="0 0 321 269" style="enable-background:new 0 0 321 269;" xml:space="preserve">
<style type="text/css">
	.st0{fill:#FFFFFF;}
</style>
<g>
	<path class="st0" d="M212.9,248.5H107.1c-21.6,0-39.1-17.5-39.1-39c0-1.4,0.4-2.8,1.3-4l65.4-92.1V34.1c-3.2-1.3-4.4-4.2-4.2-6.6
		c0.4-3.4,3.5-7,9.5-7H180c6,0,9.2,3.6,9.5,7c0.3,2.5-1,5.3-4.2,6.6v81.6c0,1.1-0.9,2-2,2s-2-0.9-2-2V32.6c0-0.9,0.7-1.8,1.6-2
		c1.8-0.4,2.8-1.4,2.6-2.7c-0.2-1.7-2.1-3.4-5.5-3.4H140c-3.4,0-5.3,1.7-5.5,3.4c-0.1,1.3,0.8,2.3,2.6,2.7c0.9,0.2,1.6,1,1.6,2V114
		c0,0.4-0.1,0.8-0.4,1.2l-65.7,92.6c-0.4,0.5-0.5,1.1-0.5,1.7c0,19.3,15.7,34.9,35.1,34.9h105.8c19.3,0,35.1-15.7,35.1-34.9
		c0-0.6-0.2-1.2-0.5-1.7L197,136.5c-4.3-0.2-22.4-0.8-34.9,3.2c-15.2,4.9-32.8,0.2-33.6,0c-1.1-0.3-1.7-1.4-1.4-2.5
		c0.3-1.1,1.4-1.7,2.5-1.4c0.2,0,17.3,4.6,31.2,0c15-4.9,36.4-3.4,37.3-3.4c0.6,0,1.2,0.4,1.5,0.9l51,72.2c0.8,1.2,1.3,2.6,1.3,4
		C252,231,234.5,248.5,212.9,248.5z"/>
</g>
<path class="st0" d="M179.1,67.2h-38.2c-1.1,0-2-0.9-2-2s0.9-2,2-2h38.2c1.1,0,2,0.9,2,2S180.2,67.2,179.1,67.2z"/>
<path class="st0" d="M175.7,126.8h-31.4c-1.1,0-2-0.9-2-2s0.9-2,2-2h31.4c1.1,0,2,0.9,2,2S176.8,126.8,175.7,126.8z"/>
<path class="st0" d="M175.7,156.4h-31.4c-1.1,0-2-0.9-2-2s0.9-2,2-2h31.4c1.1,0,2,0.9,2,2S176.8,156.4,175.7,156.4z"/>
<path class="st0" d="M175.7,186.1h-31.4c-1.1,0-2-0.9-2-2s0.9-2,2-2h31.4c1.1,0,2,0.9,2,2S176.8,186.1,175.7,186.1z"/>
<path class="st0" d="M175.7,215.8h-31.4c-1.1,0-2-0.9-2-2s0.9-2,2-2h31.4c1.1,0,2,0.9,2,2S176.8,215.8,175.7,215.8z"/>
</svg>
