<?xml version="1.0" encoding="utf-8"?>
<!-- Generator: Adobe Illustrator 28.0.0, SVG Export Plug-In . SVG Version: 6.00 Build 0)  -->
<svg version="1.1" id="Ebene_1" xmlns="http://www.w3.org/2000/svg" xmlns:xlink="http://www.w3.org/1999/xlink" x="0px" y="0px"
	 viewBox="0 0 321 269" style="enable-background:new 0 0 321 269;" xml:space="preserve">
<style type="text/css">
	.st0{fill:#FFFFFF;}
</style>
<g>
	<path class="st0" d="M210.6,246.7h-72.7c-1.1,0-2-0.9-2-2s0.9-2,2-2h70.9l15-150.6h-16.4c-0.6,0-1.2-0.3-1.6-0.8
		c-0.4-0.5-0.5-1.1-0.3-1.8l10.4-38.9c0.2-0.7,0.7-1.2,1.4-1.4l71.1-19.1c1-0.3,1.6-1.3,1.3-2.3l-1-3.7c-0.1-0.5-0.4-0.9-0.9-1.1
		c-0.4-0.2-0.9-0.3-1.4-0.2l-74.4,20c-0.2,0-0.3,0.1-0.5,0.2c-0.1,0-0.1,0.1-0.2,0.1c-1,0.5-1.6,1.3-1.9,2.4c0,0,0,0.1,0,0.1
		c0,0,0,0.1,0,0.1l-12,44.9c-0.2,0.9-1,1.5-2,1.5h-59.7c1.1,23.2,3.3,58.7,4.7,62.3c8.6,12.4,10,31.3,3.5,46.9
		c-4.9,11.7-9.5,20-14.9,27c-8.9,11.4-22.9,18.1-38.4,18.2c-15.6,0.1-29.9-6.4-39.1-17.9c-0.7-0.9-0.6-2.1,0.3-2.8
		c0.9-0.7,2.1-0.6,2.8,0.3c8.4,10.5,21.5,16.5,35.9,16.4c14.2-0.1,27.1-6.2,35.2-16.6c5.2-6.7,9.7-14.8,14.4-26.1
		c5.9-14.2,4.6-32-3.1-43.2c-2.1-3-4.3-42.9-5.4-66.5c0-0.6,0.2-1.1,0.6-1.5c0.4-0.4,0.9-0.6,1.5-0.6h60.3l11.6-43.5c0,0,0,0,0-0.1
		c0,0,0-0.1,0-0.1c0.6-2.1,2-3.9,3.9-4.9c0.5-0.3,1-0.5,1.5-0.7l74.4-20c1.5-0.4,3.1-0.2,4.5,0.6c1.4,0.8,2.3,2.1,2.7,3.6l1,3.7
		c0.8,3.1-1,6.4-4.2,7.2l-69.9,18.8L210.1,88h16c0.6,0,1.1,0.2,1.5,0.7c0.4,0.4,0.6,1,0.5,1.6l-15.4,154.6
		C212.6,245.9,211.7,246.7,210.6,246.7z M38.4,202.7c-0.8,0-1.6-0.5-1.9-1.3c-7.6-18.4-4.2-40.9,7.9-52.2c9.1-8.5,21.5-9.5,35-2.9
		c1.4,0.7,2.7,1.4,3.9,2c1.8,1,3.5,1.9,4.9,2.4c-0.1-3.7-0.6-9.2-3.2-12.7c-0.5-0.7-0.5-1.7,0-2.4c0.5-0.7,1.4-1,2.3-0.8
		c0.1,0,12.1,3.8,19.3,2.2c7-1.6,14.2-5.9,18.6-11.2c-4.3-4.1-9.2-6.8-18.1-6.7c-13.1,1-18.1,8.2-20.5,11.6c-1,1.5-1.7,2.5-3,2.5
		c-0.7,0-1.4-0.3-1.9-0.9c-1.9-2.3-4.1-4.1-6.7-5.5c-1-0.5-1.4-1.8-0.8-2.7c0.5-1,1.8-1.4,2.7-0.8c2.4,1.3,4.6,2.9,6.5,4.9
		c2.6-3.8,8.7-12.1,23.5-13.2c0,0,0.1,0,0.1,0c9.5-0.1,16,2.6,22.3,9.2c0.7,0.7,0.7,1.8,0.2,2.6c-5,6.8-13.5,12.2-22.1,14.2
		c-5.3,1.2-12.3,0-16.9-1.1c1.4,3.8,1.7,7.8,1.8,10.8c1.4-0.5,3-1.4,4.9-2.4c1.2-0.7,2.5-1.3,3.9-2c9-4.4,17.4-5.5,24.9-3.1
		c1.1,0.3,1.7,1.5,1.3,2.5c-0.3,1.1-1.5,1.7-2.5,1.3c-6.5-2-13.8-1.1-21.9,2.9c-1.3,0.7-2.6,1.3-3.8,1.9c-3.5,1.9-6.2,3.3-8.8,3.3
		c-2.5,0-5.3-1.5-8.8-3.3c-1.2-0.6-2.4-1.3-3.8-1.9c-12.1-5.9-22.6-5.2-30.5,2.2c-10.9,10.2-13.9,30.7-7,47.7c0.4,1-0.1,2.2-1.1,2.6
		C38.9,202.6,38.6,202.7,38.4,202.7z"/>
</g>
</svg>
