<?xml version="1.0" encoding="utf-8"?>
<!-- Generator: Adobe Illustrator 28.0.0, SVG Export Plug-In . SVG Version: 6.00 Build 0)  -->
<svg version="1.1" id="Ebene_1" xmlns="http://www.w3.org/2000/svg" xmlns:xlink="http://www.w3.org/1999/xlink" x="0px" y="0px"
	 viewBox="0 0 102 93" style="enable-background:new 0 0 102 93;" xml:space="preserve">
<style type="text/css">
	.st0{fill:#FFFFFF;}
</style>
<g>
	<path class="st0" d="M42.5,61c-1.6,0-3.1-0.5-4.4-1.4c-3-2.1-4.3-6-3.6-10.1c0.3-1.8,0.5-3.4,0.6-4.7L35,41.5
		c0-0.4,0.2-0.9,0.6-1.1c0.5-0.4,1.3-0.2,1.7,0.3c0,0,1.1,1.2,6.7,3.2c3.9,1.4,6.6,4.5,6.9,8.1c0.3,3.1-1.2,6-4.1,7.7
		C45.4,60.6,43.9,61,42.5,61z M37.6,43.9l0,0.8c0,0,0,0.1,0,0.1c-0.1,1.4-0.3,3.1-0.7,5c-0.6,3.2,0.4,6.1,2.6,7.7
		c1.8,1.2,3.9,1.3,6,0.1c2.1-1.2,3.1-3.1,2.9-5.3c-0.2-2.6-2.3-4.9-5.3-6C40.6,45.3,38.8,44.6,37.6,43.9z M42.6,57.7
		c-2.8,0-4.2-2.3-4.3-2.4c-0.4-0.6-0.2-1.4,0.4-1.7c0.6-0.3,1.4-0.2,1.7,0.4c0,0.1,0.8,1.2,2.1,1.2c0,0,0,0,0,0
		c0.7,0,1.2,0.6,1.2,1.2C43.9,57.2,43.4,57.7,42.6,57.7C42.7,57.7,42.6,57.7,42.6,57.7z M25,45.3c-1.6,0-3.1-0.5-4.4-1.4
		c-3-2.1-4.3-6-3.6-10.1c0.3-1.8,0.5-3.4,0.6-4.7l-0.1-3.2c0-0.6,0.3-1.1,0.9-1.2c0.5-0.2,1.1,0,1.4,0.4c0,0,1.1,1.2,6.7,3.2
		c3.9,1.4,6.6,4.5,6.9,8.1c0.3,3.1-1.2,6-4.1,7.7C28,44.9,26.5,45.3,25,45.3z M20.2,28.3l0,0.8c0,0,0,0.1,0,0.1
		c-0.1,1.4-0.3,3.1-0.7,5c-0.6,3.2,0.4,6.1,2.6,7.7c1.7,1.2,3.9,1.3,6,0.1c2.1-1.2,3.1-3.1,2.9-5.3c-0.2-2.6-2.3-4.9-5.3-6
		C23.1,29.7,21.4,28.9,20.2,28.3z M25.2,42.1c-2.8,0-4.2-2.3-4.3-2.4c-0.4-0.6-0.2-1.4,0.4-1.7c0.6-0.3,1.4-0.2,1.7,0.4
		c0,0.1,0.8,1.2,2.2,1.2c0.7,0,1.3,0.5,1.3,1.2S25.9,42.1,25.2,42.1C25.2,42.1,25.2,42.1,25.2,42.1z M42.1,41
		c-1.6,0-3.1-0.5-4.4-1.4c-3-2.1-4.3-6-3.6-10.1c0.3-1.8,0.5-3.4,0.6-4.7l-0.1-3.2c0-0.6,0.4-1.1,0.9-1.3c0.5-0.1,1,0.1,1.3,0.4
		c0,0,1.1,1.2,6.7,3.2c3.9,1.4,6.6,4.5,6.9,8.1c0.3,3.1-1.2,6-4.1,7.7C45,40.6,43.5,41,42.1,41z M37.3,23.9l0,0.8c0,0,0,0.1,0,0.1
		c-0.1,1.4-0.3,3.1-0.7,5C36,33.1,37,36,39.2,37.5c1.8,1.2,3.9,1.3,6,0.1c2.1-1.2,3.1-3.1,2.9-5.3c-0.2-2.6-2.3-4.9-5.3-6
		C40.2,25.4,38.4,24.6,37.3,23.9z M42.2,37.7c-2.8,0-4.2-2.3-4.3-2.4c-0.4-0.6-0.2-1.4,0.4-1.7c0.6-0.3,1.4-0.2,1.7,0.4
		c0,0.1,0.8,1.2,2.1,1.2c0,0,0,0,0,0c0.7,0,1.2,0.6,1.2,1.2C43.5,37.2,43,37.7,42.2,37.7C42.3,37.7,42.3,37.7,42.2,37.7z"/>
	<path class="st0" d="M45,73.3c-0.3,0-0.6-0.1-0.9-0.4l-14-13.8c-0.5-0.5-0.5-1.3,0-1.8c0.5-0.5,1.3-0.5,1.8,0L45,70.3l22.4-22.1
		c0.5-0.5,1.3-0.5,1.8,0c0.5,0.5,0.5,1.3,0,1.8L45.9,73C45.6,73.2,45.3,73.3,45,73.3z"/>
</g>
<path class="st0" d="M68.8,57.3c-0.7,0-1.2-0.6-1.2-1.2v-6.5H61c-0.7,0-1.2-0.6-1.2-1.2S60.3,47,61,47h7.8c0.7,0,1.2,0.6,1.2,1.2
	v7.8C70,56.7,69.5,57.3,68.8,57.3z"/>
<g>
	<path class="st0" d="M84.2,73.3H78c-0.7,0-1.2-0.6-1.2-1.2V21.5c0-0.7,0.6-1.2,1.2-1.2h6.5c0.7,0,1.2,0.6,1.2,1.2v40.8
		c0,0.7-0.6,1.2-1.2,1.2s-1.2-0.6-1.2-1.2V22.7h-4v48.1h4.9c0.7,0,1.2,0.6,1.2,1.2S84.9,73.3,84.2,73.3z"/>
</g>
</svg>
