<?xml version="1.0" encoding="utf-8"?>
<!-- Generator: Adobe Illustrator 28.0.0, SVG Export Plug-In . SVG Version: 6.00 Build 0)  -->
<svg version="1.1" id="Ebene_1" xmlns="http://www.w3.org/2000/svg" xmlns:xlink="http://www.w3.org/1999/xlink" x="0px" y="0px"
	 viewBox="0 0 321 269" style="enable-background:new 0 0 321 269;" xml:space="preserve">
<style type="text/css">
	.st0{fill:#FFFFFF;}
	.st1{fill:none;stroke:#FFFFFF;stroke-width:4.05;stroke-linecap:round;stroke-linejoin:round;stroke-miterlimit:10;}
</style>
<g>
	<path class="st0" d="M157.1,181.9c-0.5,0-0.9-0.2-1.3-0.5c-0.4-0.4-10.8-9-10.8-20.1s10.4-19.7,10.8-20.1c0.7-0.6,1.8-0.6,2.6,0
		c0.4,0.4,10.8,9,10.8,20.1s-10.4,19.7-10.8,20.1C158.1,181.7,157.6,181.9,157.1,181.9z M157.1,145.5c-2.6,2.5-8.1,8.7-8.1,15.8
		c0,7,5.5,13.3,8.1,15.8c2.6-2.5,8.1-8.7,8.1-15.8C165.2,154.2,159.7,148,157.1,145.5z"/>
	<path class="st0" d="M242.9,181.9c-0.5,0-0.9-0.2-1.3-0.5c-0.4-0.4-10.8-9-10.8-20.1s10.4-19.7,10.8-20.1c0.7-0.6,1.8-0.6,2.6,0
		c0.4,0.4,10.8,9,10.8,20.1s-10.4,19.7-10.8,20.1C243.8,181.7,243.4,181.9,242.9,181.9z M242.9,145.5c-2.6,2.5-8.1,8.7-8.1,15.8
		c0,7.1,5.5,13.3,8.1,15.8c2.6-2.5,8.1-8.7,8.1-15.8C251,154.2,245.5,148,242.9,145.5z"/>
	<path class="st0" d="M142.3,192.6c-3.8,0-8.2-0.7-12.1-3.2c-9.4-5.9-12.1-19.5-12.2-20.1c-0.2-1,0.4-2,1.3-2.3
		c0.5-0.2,12.8-4.5,22.3,1.5c9.4,5.9,12.1,19.5,12.2,20.1c0.2,1-0.4,2-1.3,2.3C152.2,191,147.8,192.6,142.3,192.6z M122.4,170.3
		c1,3.6,3.9,11.8,10,15.6c6,3.8,13.6,2.5,17,1.7c-1-3.6-3.9-11.8-10-15.6C133.5,168.2,125.8,169.5,122.4,170.3z"/>
	<path class="st0" d="M228,192.6c-3.8,0-8.2-0.7-12.1-3.2c-9.4-5.9-12.1-19.5-12.2-20.1c-0.2-1,0.4-2,1.3-2.3
		c0.5-0.2,12.8-4.5,22.3,1.5c9.4,5.9,12.1,19.5,12.2,20.1c0.2,1-0.4,2-1.3,2.3C238,191,233.5,192.6,228,192.6z M208.1,170.3
		c1,3.6,3.9,11.8,10,15.6c5.9,3.8,13.6,2.5,17,1.7c-1-3.6-3.9-11.8-10-15.6l0,0C219.2,168.2,211.5,169.5,208.1,170.3z"/>
	<path class="st0" d="M157.3,247.2c-1.1,0-2-0.9-2-2v-59c0-0.7,0.3-1.3,0.9-1.7c0.5-0.4,1.2-0.5,1.9-0.2l5.8,2.1
		c0,0,10.7,3.3,18.4-1c5.7-3.2,8.5-9.8,9.6-13c-3.4-0.7-10.8-1.7-16.6,1.5c-4.3,2.4-7,6.8-8.4,10c-0.5,1-1.7,1.5-2.7,1
		c-1-0.5-1.5-1.7-1-2.7c1.7-3.8,4.8-9,10.1-11.9c9.3-5.2,21.2-1.5,21.7-1.3c1,0.3,1.6,1.3,1.4,2.4c-0.1,0.5-2.8,12.4-12.1,17.6
		c-9.3,5.2-21.2,1.5-21.7,1.3l-3.1-1.1v56.1C159.4,246.3,158.5,247.2,157.3,247.2z"/>
	<path class="st0" d="M308.7,247.2h-65.6c-1.1,0-2-0.9-2-2v-59c0-0.7,0.3-1.3,0.9-1.7c0.5-0.4,1.2-0.5,1.9-0.2l5.5,2.1
		c0,0,10,3.2,17.3-1c5.4-3.2,8-9.8,9.1-13.1c-3.2-0.7-10.2-1.7-15.5,1.5c-4.1,2.4-6.6,6.8-7.9,10c-0.4,1-1.6,1.5-2.7,1.1
		c-1-0.4-1.5-1.6-1.1-2.7c1.6-3.8,4.6-9,9.6-11.9c8.9-5.2,20.2-1.5,20.7-1.3c1,0.3,1.5,1.3,1.3,2.3c-0.1,0.5-2.6,12.4-11.5,17.6
		c-8.9,5.2-20.2,1.5-20.7,1.3l-2.8-1.1v54h63.6c1.1,0,2,0.9,2,2S309.9,247.2,308.7,247.2z"/>
	<path class="st0" d="M244.6,71.3c-0.8,0-1.5-0.4-1.8-1.2c-3.5-7.4-8.6-14.6-14.8-20.8c-0.8-0.8-0.8-2.1,0-2.9
		c0.8-0.8,2.1-0.8,2.9,0c6.5,6.5,11.9,14.1,15.6,21.9c0.5,1,0,2.2-1,2.7C245.2,71.2,244.9,71.3,244.6,71.3z"/>
	<path class="st0" d="M253.6,101.7c-0.9,0-1.8-0.7-2-1.6c-1.1-5.6-2.5-11.2-4.3-17.3c-0.6-2.1-1.6-4.3-2.8-6.5
		c-0.5-1-0.2-2.2,0.8-2.7c1-0.5,2.2-0.2,2.7,0.8c1.3,2.5,2.4,4.9,3.1,7.3c1.8,6.2,3.3,12,4.4,17.7c0.2,1.1-0.5,2.2-1.6,2.4
		C253.8,101.7,253.7,101.7,253.6,101.7z"/>
	<path class="st0" d="M256.5,132c-0.1,0-0.2,0-0.2,0c-1.1-0.1-1.9-1.1-1.8-2.2c0.8-6.6,1.2-13.7-2.5-22.8c-0.4-1,0.1-2.2,1.1-2.6
		c1-0.4,2.2,0.1,2.6,1.1c4,9.9,3.5,18,2.7,24.8C258.4,131.2,257.6,132,256.5,132z"/>
	<path class="st0" d="M215.1,83.9c-0.8,0-1.5-0.4-1.8-1.2c-2.6-5.5-6.3-10.8-10.8-15.7c-0.8-0.8-0.7-2.1,0.1-2.9
		c0.8-0.8,2.1-0.7,2.9,0.1c4.8,5.2,8.6,10.8,11.5,16.7c0.5,1,0.1,2.2-1,2.7C215.7,83.8,215.4,83.9,215.1,83.9z"/>
	<path class="st0" d="M223.1,105.9c-0.9,0-1.7-0.6-2-1.5c-0.8-3-3.9-11.6-6.1-16.8c-0.4-1,0-2.2,1-2.7c1-0.4,2.2,0,2.7,1
		c2.2,5,5.4,14,6.3,17.4c0.3,1.1-0.4,2.2-1.5,2.5C223.5,105.9,223.3,105.9,223.1,105.9z"/>
	<path class="st0" d="M228,130.4c-1.1,0-2-0.9-2-2c0-6-1.1-11.4-3.5-17.1c-0.4-1,0.1-2.2,1.1-2.6c1-0.4,2.2,0.1,2.7,1.1
		c2.6,6.1,3.8,12.2,3.8,18.6C230,129.5,229.1,130.4,228,130.4C228,130.4,228,130.4,228,130.4z"/>
	<path class="st0" d="M199.7,63.7c-0.5,0-1.1-0.2-1.5-0.6c-4.3-4.4-9.2-8.3-14.4-11.6c-1-0.6-1.2-1.8-0.7-2.8c0.6-1,1.8-1.2,2.8-0.7
		c5.5,3.4,10.7,7.5,15.2,12.2c0.8,0.8,0.8,2.1,0,2.9C200.7,63.5,200.2,63.7,199.7,63.7z"/>
	<path class="st0" d="M216.3,67c-0.6,0-1.2-0.3-1.6-0.8c-4.1-5.6-9-10.7-14.6-15.1c-0.9-0.7-1-2-0.3-2.8c0.7-0.9,2-1,2.8-0.3
		c5.9,4.6,11.1,10,15.4,15.9c0.7,0.9,0.5,2.2-0.4,2.8C217.1,66.8,216.7,67,216.3,67z"/>
	<path class="st0" d="M228.1,87.5c-0.8,0-1.6-0.5-1.9-1.4c-1.7-5-4.5-10-8.2-14.9c-0.7-0.9-0.5-2.2,0.4-2.8c0.9-0.7,2.2-0.5,2.8,0.4
		c4,5.2,6.9,10.6,8.8,16c0.4,1.1-0.2,2.2-1.3,2.6C228.5,87.5,228.3,87.5,228.1,87.5z"/>
	<path class="st0" d="M235.2,112.9c-0.9,0-1.8-0.7-2-1.6c-1.2-6.2-3.1-12.5-5.7-19.3c-0.4-1,0.1-2.2,1.2-2.6c1-0.4,2.2,0.1,2.6,1.2
		c2.7,7,4.6,13.5,5.9,19.9c0.2,1.1-0.5,2.2-1.6,2.4C235.4,112.9,235.3,112.9,235.2,112.9z"/>
	<path class="st0" d="M246.5,121.1c-1,0-1.9-0.8-2-1.8c-0.6-6.9-2.1-13.7-4.6-20.8c-0.4-1.1,0.2-2.2,1.2-2.6
		c1.1-0.4,2.2,0.2,2.6,1.2c2.6,7.5,4.2,14.6,4.8,21.8c0.1,1.1-0.7,2.1-1.8,2.2C246.6,121.1,246.6,121.1,246.5,121.1z"/>
	<path class="st0" d="M230.8,69.2c-0.7,0-1.3-0.3-1.7-0.9c-3.8-6-8.5-11.5-14-16.4c-0.8-0.7-0.9-2-0.2-2.9c0.7-0.8,2-0.9,2.9-0.2
		c5.8,5.1,10.7,10.9,14.8,17.2c0.6,0.9,0.3,2.2-0.6,2.8C231.5,69.1,231.1,69.2,230.8,69.2z"/>
	<path class="st0" d="M212.3,48.8c-0.5,0-0.9-0.2-1.3-0.5c-5.5-4.7-11.6-8.7-18.1-11.8c-1-0.5-1.4-1.7-1-2.7c0.5-1,1.7-1.4,2.7-1
		c6.9,3.3,13.3,7.4,19.1,12.4c0.8,0.7,0.9,2,0.2,2.9C213.5,48.5,212.9,48.8,212.3,48.8z"/>
	<path class="st0" d="M241.1,93.7c-0.9,0-1.8-0.6-2-1.6c-0.4-1.5-0.7-3.1-1.1-4.6c-1.1-4.5-3.3-9.2-6.5-13.8
		c-0.6-0.9-0.4-2.2,0.5-2.8c0.9-0.6,2.2-0.4,2.8,0.5c3.5,5,5.9,10.1,7.1,15.1c0.4,1.6,0.8,3.1,1.1,4.7c0.3,1.1-0.4,2.2-1.5,2.4
		C241.4,93.7,241.3,93.7,241.1,93.7z"/>
	<path class="st0" d="M196.4,94.8c-0.8,0-1.6-0.5-1.9-1.3c-1.9-4.6-4.7-9.1-8.4-13.3c-0.7-0.8-0.6-2.1,0.2-2.9
		c0.8-0.7,2.1-0.6,2.9,0.2c3.9,4.6,7,9.4,9,14.4c0.4,1-0.1,2.2-1.1,2.6C196.9,94.7,196.6,94.8,196.4,94.8z"/>
	<path class="st0" d="M184.1,76.6c-0.6,0-1.1-0.2-1.5-0.7c-3.3-3.9-7.1-7.4-11.3-10.5c-0.9-0.7-1.1-1.9-0.4-2.8
		c0.7-0.9,1.9-1.1,2.8-0.4c4.4,3.2,8.4,7,11.9,11.1c0.7,0.8,0.6,2.1-0.2,2.9C185,76.5,184.5,76.6,184.1,76.6z"/>
	<path class="st0" d="M206.5,134c-0.2,0-0.4,0-0.5-0.1c-1.1-0.3-1.7-1.4-1.4-2.5c0.9-3.1,1.4-7.4-1.6-13.3c-0.5-1-0.1-2.2,0.9-2.7
		c1-0.5,2.2-0.1,2.7,0.9c3.8,7.3,2.9,12.8,2,16.3C208.2,133.4,207.4,134,206.5,134z"/>
	<path class="st0" d="M203.7,113.8c-0.9,0-1.7-0.6-1.9-1.4c-1.3-4.3-3-8.6-5.2-13.2c-0.5-1,0-2.2,1-2.7s2.2,0,2.7,1
		c2.3,4.8,4,9.3,5.4,13.7c0.3,1.1-0.3,2.2-1.3,2.5C204.1,113.8,203.9,113.8,203.7,113.8z"/>
	<path class="st0" d="M199.7,78.2c-0.6,0-1.2-0.3-1.6-0.8c-3.3-4.5-7.2-8.6-11.5-12.2c-0.9-0.7-1-2-0.2-2.9c0.7-0.9,2-1,2.9-0.2
		c4.6,3.9,8.7,8.2,12.2,13c0.7,0.9,0.5,2.2-0.4,2.8C200.6,78,200.2,78.2,199.7,78.2z"/>
	<path class="st0" d="M211.1,97.9c-0.9,0-1.7-0.6-1.9-1.4c-1.4-4.7-4.1-9.7-7.7-14.4c-0.7-0.9-0.5-2.2,0.3-2.8
		c0.9-0.7,2.2-0.5,2.8,0.3c4,5.1,6.9,10.5,8.4,15.7c0.3,1.1-0.3,2.2-1.4,2.5C211.5,97.9,211.3,97.9,211.1,97.9z"/>
	<path class="st0" d="M217.5,119.5c-0.9,0-1.8-0.6-2-1.6c-1.2-5.1-2.9-10.2-5.3-15.6c-0.4-1,0-2.2,1-2.7c1-0.4,2.2,0,2.7,1
		c2.5,5.7,4.3,11,5.5,16.3c0.3,1.1-0.4,2.2-1.5,2.4C217.8,119.5,217.6,119.5,217.5,119.5z"/>
	<path class="st0" d="M102,67.8c-0.6,0-1.2-0.3-1.6-0.8c-0.7-0.9-0.5-2.2,0.4-2.8c4.4-3.4,7.4-5.4,11.9-7.8
		c15.8-8.5,32.4-11.9,46.6-9.4c5.5,0.9,10.8,2.6,15.6,5c3.4,1.7,6.6,3.7,9.7,6c0.9,0.7,1,2,0.4,2.8c-0.7,0.9-2,1-2.8,0.4
		c-2.8-2.2-5.8-4.1-8.9-5.6c-4.5-2.2-9.4-3.7-14.5-4.6c-13.3-2.3-28.9,0.9-44,9c-4.3,2.3-7.1,4.2-11.3,7.4
		C102.8,67.6,102.4,67.8,102,67.8z"/>
	<path class="st0" d="M93.1,58.9c-0.5,0-1-0.2-1.4-0.6c-0.8-0.8-0.8-2.1,0-2.9c8.7-8.9,19.3-16.3,32.2-22.5
		c20.9-10,42.7-14,61.4-11.2c9.1,1.4,17.5,4.1,25.1,8c6,3.1,11.5,7,16.4,11.6c0.8,0.8,0.9,2,0.1,2.9c-0.8,0.8-2,0.9-2.9,0.1
		c-4.6-4.3-9.8-8-15.5-11c-7.2-3.8-15.2-6.3-23.9-7.6c-17.9-2.7-38.9,1.1-59,10.8c-12.5,6-22.7,13.1-31.1,21.7
		C94.1,58.7,93.6,58.9,93.1,58.9z"/>
</g>
<path class="st1" d="M200.3,49.2"/>
<g>
	<path class="st0" d="M15,222.7c-0.7,0-1.4-0.4-1.8-1c-0.6-1-0.2-2.2,0.7-2.8l44.9-26.1c0.1,0,0.1-0.1,0.2-0.1c0,0,0.1-0.1,0.1-0.1
		c0.5-0.4,0.7-1,0.7-1.6c0-0.1,0-0.1,0-0.2v-1.5c0-0.9,0.6-1.7,1.5-2c0.9-0.2,1.8,0.2,2.3,1l1.7,3c0.1,0.2,0.3,0.3,0.5,0.4
		c0.1,0,0.3,0.1,0.6-0.1l9.6-5.6c0.4-0.2,0.5-0.7,0.3-1.1l-12-21.1c-0.2-0.3-0.3-0.7-0.3-1v-52.4c0-0.4-0.3-0.8-0.8-0.8h-1.4
		c-1.1,0-2-0.9-2-2v-3.7c0-0.5,0.2-1,0.6-1.4l2.8-2.9c0.7-0.7,1.8-0.8,2.6-0.2c4.8,3.6,12.4,4.7,16.6,0.4l21.9-22.2
		c0.8-0.8,2.1-0.8,2.9,0l0.5,0.5l2.1-2.1L86.4,51.3l-2.1,2.1l7.8,7.9c0.8,0.8,0.8,2.1,0,2.8l-36.4,36.8c-0.2,0.2-0.2,0.4-0.2,0.6
		c0,0,0,0,0,0.1v5.9c0,1.1-0.9,2-2,2h-1.4c-0.4,0-0.8,0.4-0.8,0.8v56.1c0,0,0,0.1,0,0.1c0,0,0,0,0,0c0,0.2,0.1,0.2,0.1,0.3l3.8,6.7
		c0.2,0.3,0.3,0.7,0.3,1v13.9c0,0.7-0.4,1.4-1,1.8l-42.3,24.6c-1,0.6-2.2,0.2-2.8-0.7c-0.6-1-0.2-2.2,0.7-2.8l41.3-24v-12.2
		l-3.6-6.2c-0.3-0.6-0.5-1.2-0.6-1.9c0,0,0-0.1,0-0.1c0-0.1,0-0.2,0-0.3c0,0,0-0.1,0-0.1v-56.2c0-2.5,1.8-4.5,4.2-4.8v-4
		c0,0,0,0,0-0.1c0-1.3,0.5-2.5,1.4-3.4l35-35.3L81,55.8c-1.3-1.3-1.3-3.5,0-4.8l2.9-3c0.6-0.7,1.5-1,2.4-1h0c0.9,0,1.8,0.4,2.4,1
		l24.5,25.5c1.3,1.3,1.3,3.5,0,4.8l-2.9,3c-1.1,1.1-3,1.3-4.3,0.5l-20.6,20.8c-5.4,5.4-14.2,4.8-20.5,1l-1.1,1.1v0.9
		c2.3,0.3,4.1,2.3,4.1,4.8v51.9l11.8,20.6c1.3,2.3,0.5,5.3-1.8,6.6l-9.6,5.6c-1.1,0.6-2.4,0.8-3.6,0.5c-0.7-0.2-1.4-0.6-2-1.1
		c-0.3,0.4-0.5,0.7-0.9,1c-0.3,0.3-0.7,0.6-1.1,0.8L16,222.4C15.7,222.6,15.3,222.7,15,222.7z M110.4,76.3
		C110.4,76.3,110.4,76.3,110.4,76.3L110.4,76.3z M75.3,98.6c-2,0-4-0.5-5.8-1.6c-0.5-0.3-0.9-0.9-1-1.5c-0.1-0.6,0.1-1.2,0.6-1.7
		l26.2-26.5c0.4-0.4,0.9-0.6,1.4-0.6c0,0,0,0,0,0c0.5,0,1.1,0.2,1.4,0.6l5,5c0.8,0.8,0.8,2.1,0,2.8L83.2,95.3
		C81.1,97.5,78.2,98.6,75.3,98.6z M74.1,94.5c2.2,0.4,4.6-0.3,6.3-2l18.4-18.7l-2.1-2.2L74.1,94.5z"/>
	<path class="st0" d="M97,62.8c-0.6,0-1.1-0.2-1.5-0.7c-0.7-0.8-0.7-2.1,0.2-2.9c6.4-5.6,13.2-10,22.8-14.8
		c18.5-9.1,37.7-12.8,54.3-10.2c5.2,0.8,10.2,2.1,14.9,3.9c1,0.4,1.6,1.6,1.2,2.6c-0.4,1-1.6,1.6-2.6,1.2c-4.4-1.7-9.1-3-14-3.7
		c-15.7-2.5-34.2,1-51.9,9.8c-9.3,4.6-15.9,8.9-21.9,14.2C98,62.7,97.5,62.8,97,62.8z"/>
	<path class="st0" d="M177.7,248.2c-8.2,0-18.2,0-28.1,0c-13.9,0-25-0.1-32.9-0.1c-4.7,0-8.4-0.1-10.9-0.1c-4.8-0.1-5.8-0.1-6.1-1.9
		c-0.1-1,0.5-2,1.5-2.3c10.1-3.1,17.5-13.9,17.5-25.8c0-14.4-10.7-26-23.9-26s-23.9,11.7-23.9,26c0,12.1,7.5,23,17.8,26
		c1,0.3,1.6,1.2,1.4,2.2c-0.1,1-1,1.7-2,1.7c-3.7,0-49.4,0.4-49.9,0.4c0,0,0,0,0,0c-1.1,0-2-0.9-2-2c0-1.1,0.9-2,2-2
		c0.4,0,27.1-0.2,41.4-0.3c-7.7-5.6-12.8-15.4-12.8-25.9c0-16.6,12.5-30.1,27.9-30.1s27.9,13.5,27.9,30.1c0,10.6-5.2,20.4-13,26
		c17,0.2,58.4,0.3,87.8,0.2c0,0,0,0,0,0c1.1,0,2,0.9,2,2c0,1.1-0.9,2-2,2C197.4,248.2,189.2,248.2,177.7,248.2z"/>
</g>
</svg>
