<?xml version="1.0" encoding="utf-8"?>
<!-- Generator: Adobe Illustrator 28.0.0, SVG Export Plug-In . SVG Version: 6.00 Build 0)  -->
<svg version="1.1" id="Ebene_1" xmlns="http://www.w3.org/2000/svg" xmlns:xlink="http://www.w3.org/1999/xlink" x="0px" y="0px"
	 viewBox="0 0 102 93" style="enable-background:new 0 0 102 93;" xml:space="preserve">
<style type="text/css">
	.st0{fill:#FFFFFF;}
</style>
<path class="st0" d="M54.5,65.5c-0.3,0-0.6-0.1-0.9-0.4c-0.5-0.5-0.5-1.3,0-1.8l12.9-13.1L44.5,27.8c-0.5-0.5-0.5-1.3,0-1.8
	c0.5-0.5,1.3-0.5,1.8,0l23,23.3c0.5,0.5,0.5,1.3,0,1.8l-13.8,14C55.2,65.3,54.8,65.5,54.5,65.5z"/>
<path class="st0" d="M44.5,35.5c-0.7,0-1.2-0.6-1.2-1.2v-7.8c0-0.7,0.6-1.2,1.2-1.2h7.8c0.7,0,1.2,0.6,1.2,1.2s-0.6,1.2-1.2,1.2
	h-6.5v6.5C45.8,34.9,45.2,35.5,44.5,35.5z"/>
<g>
	<path class="st0" d="M83.2,73.3H77c-0.7,0-1.2-0.6-1.2-1.2V21.5c0-0.7,0.6-1.2,1.2-1.2h6.5c0.7,0,1.2,0.6,1.2,1.2v40.8
		c0,0.7-0.6,1.2-1.2,1.2s-1.2-0.6-1.2-1.2V22.7h-4v48.1h4.9c0.7,0,1.2,0.6,1.2,1.2S83.9,73.3,83.2,73.3z"/>
	<path class="st0" d="M33.8,43.8c0.1-0.1,0.2-0.3,0.3-0.5c0.1-0.2,0.5-0.5,1-1c0.5-0.5,0.9-0.8,1.1-1.1c0.3-0.4,0.5-0.8,0.7-1.1
		c0.1-0.3,0.2-0.7,0.2-1.1c0-0.7-0.2-1.2-0.7-1.7s-1.2-0.7-2-0.7c-0.8,0-1.4,0.2-1.9,0.6c-0.5,0.4-0.8,1-0.9,2l1.6,0.2
		c0-0.5,0.1-0.8,0.4-1c0.2-0.2,0.5-0.3,0.8-0.3c0.3,0,0.6,0.1,0.8,0.3c0.2,0.2,0.3,0.5,0.3,0.8c0,0.3-0.1,0.7-0.3,1
		c-0.2,0.2-0.6,0.7-1.4,1.4c-0.9,0.9-1.5,1.5-1.9,2.1c-0.3,0.5-0.5,1.1-0.6,1.6h5.8v-1.5H33.8z M20.1,27.3c0.8-0.8,1.7-1.3,3-1.3
		s2.2,0.4,3,1.2c0.7,0.8,1.1,2.1,1.1,3.8c0,1.7-0.4,3-1.1,3.9c-0.8,0.9-1.7,1.3-2.9,1.3s-2.2-0.4-2.9-1.3c-0.8-0.9-1.2-2.1-1.2-3.8
		C18.9,29.4,19.3,28.1,20.1,27.3 M17.8,36.7c1.3,1.3,3,2,5.2,2c2.2,0,3.9-0.7,5.2-2c1.3-1.3,1.9-3.2,1.9-5.6c0-2.4-0.7-4.3-2-5.6
		c-1.3-1.3-3-2-5.2-2c-1.2,0-2.3,0.2-3.2,0.6c-0.7,0.3-1.3,0.7-1.9,1.3c-0.6,0.6-1,1.3-1.4,2c-0.4,1-0.7,2.3-0.7,3.8
		C15.9,33.5,16.5,35.4,17.8,36.7"/>
	<path class="st0" d="M53.2,59.9c0.1-0.1,0.1-0.2,0.2-0.3c0.1-0.1,0.3-0.3,0.6-0.6c0.3-0.3,0.6-0.5,0.7-0.7c0.2-0.2,0.3-0.5,0.4-0.7
		c0.1-0.2,0.1-0.5,0.1-0.7c0-0.4-0.2-0.8-0.5-1.1c-0.3-0.3-0.7-0.4-1.3-0.4c-0.5,0-0.9,0.1-1.2,0.4c-0.3,0.3-0.5,0.7-0.6,1.3
		l1.1,0.1c0-0.3,0.1-0.5,0.2-0.7s0.3-0.2,0.5-0.2c0.2,0,0.4,0.1,0.5,0.2c0.1,0.1,0.2,0.3,0.2,0.5c0,0.2-0.1,0.4-0.2,0.7
		c-0.1,0.2-0.4,0.5-0.9,0.9c-0.6,0.6-1,1-1.2,1.3c-0.2,0.3-0.3,0.7-0.4,1.1h3.7v-1H53.2z M44.3,49.2c0.5-0.5,1.1-0.8,1.9-0.8
		s1.4,0.3,1.9,0.8c0.5,0.5,0.7,1.4,0.7,2.4c0,1.1-0.2,1.9-0.7,2.5C47.6,54.7,47,55,46.2,55c-0.8,0-1.4-0.3-1.9-0.8
		c-0.5-0.6-0.7-1.4-0.7-2.5C43.6,50.6,43.8,49.8,44.3,49.2 M42.8,55.3c0.8,0.9,2,1.3,3.4,1.3c1.4,0,2.5-0.4,3.4-1.3
		c0.8-0.9,1.3-2.1,1.3-3.6c0-1.6-0.4-2.8-1.3-3.6c-0.8-0.9-2-1.3-3.4-1.3c-0.8,0-1.5,0.1-2.1,0.4c-0.4,0.2-0.9,0.5-1.2,0.9
		c-0.4,0.4-0.7,0.8-0.9,1.3c-0.3,0.7-0.4,1.5-0.4,2.4C41.6,53.3,42,54.5,42.8,55.3"/>
	<path class="st0" d="M32.6,68.3c0.1-0.1,0.1-0.2,0.2-0.3c0.1-0.1,0.3-0.3,0.6-0.6c0.3-0.3,0.6-0.5,0.7-0.7c0.2-0.2,0.3-0.5,0.4-0.7
		c0.1-0.2,0.1-0.5,0.1-0.7c0-0.4-0.2-0.8-0.5-1.1c-0.3-0.3-0.7-0.4-1.3-0.4c-0.5,0-0.9,0.1-1.2,0.4c-0.3,0.3-0.5,0.7-0.6,1.3
		l1.1,0.1c0-0.3,0.1-0.5,0.2-0.7c0.1-0.1,0.3-0.2,0.5-0.2c0.2,0,0.4,0.1,0.5,0.2c0.1,0.1,0.2,0.3,0.2,0.5c0,0.2-0.1,0.4-0.2,0.7
		c-0.1,0.2-0.4,0.5-0.9,0.9c-0.6,0.6-1,1-1.2,1.3c-0.2,0.3-0.3,0.7-0.4,1.1h3.7v-1H32.6z M23.8,57.7c0.5-0.5,1.1-0.8,1.9-0.8
		c0.8,0,1.4,0.3,1.9,0.8c0.5,0.5,0.7,1.4,0.7,2.4c0,1.1-0.2,1.9-0.7,2.5c-0.5,0.6-1.1,0.8-1.9,0.8s-1.4-0.3-1.9-0.8
		C23.3,62,23,61.2,23,60.1C23,59,23.3,58.2,23.8,57.7 M22.3,63.8c0.8,0.9,2,1.3,3.4,1.3c1.4,0,2.5-0.4,3.4-1.3
		c0.8-0.9,1.3-2.1,1.3-3.6c0-1.6-0.4-2.8-1.3-3.6c-0.8-0.9-2-1.3-3.4-1.3c-0.8,0-1.5,0.1-2.1,0.4c-0.4,0.2-0.9,0.5-1.2,0.9
		c-0.4,0.4-0.7,0.8-0.9,1.3c-0.3,0.7-0.4,1.5-0.4,2.4C21.1,61.7,21.5,62.9,22.3,63.8"/>
</g>
</svg>
