<?xml version="1.0" encoding="utf-8"?>
<!-- Generator: Adobe Illustrator 28.0.0, SVG Export Plug-In . SVG Version: 6.00 Build 0)  -->
<svg version="1.1" id="Ebene_1" xmlns="http://www.w3.org/2000/svg" xmlns:xlink="http://www.w3.org/1999/xlink" x="0px" y="0px"
	 viewBox="0 0 481 469" style="enable-background:new 0 0 481 469;" xml:space="preserve">
<style type="text/css">
	.st0{fill:#F1B434;}
</style>
<g>
	<defs>
		<path id="SVGID_1_" d="M34.7,234.5c0,113.4,91.9,205.3,205.3,205.3c113.4,0,205.3-91.9,205.3-205.3S353.4,29.2,240,29.2
			C126.6,29.2,34.7,121.1,34.7,234.5"/>
	</defs>
	<clipPath id="SVGID_00000160898976401949523110000008878835227046896297_">
		<use xlink:href="#SVGID_1_"  style="overflow:visible;"/>
	</clipPath>
</g>
<g>
	<path class="st0" d="M240,447.9c-117.7,0-213.4-95.7-213.4-213.4S122.3,21.1,240,21.1s213.4,95.7,213.4,213.4
		c0,57-22.2,110.6-62.5,150.9C350.6,425.7,297,447.9,240,447.9z M240,37.2c-108.8,0-197.3,88.5-197.3,197.3
		c0,108.8,88.5,197.3,197.3,197.3c108.8,0,197.3-88.5,197.3-197.3C437.3,125.7,348.8,37.2,240,37.2z"/>
</g>
</svg>
