<?xml version="1.0" encoding="utf-8"?>
<!-- Generator: Adobe Illustrator 28.0.0, SVG Export Plug-In . SVG Version: 6.00 Build 0)  -->
<svg version="1.1" id="Ebene_1" xmlns="http://www.w3.org/2000/svg" xmlns:xlink="http://www.w3.org/1999/xlink" x="0px" y="0px"
	 viewBox="0 0 223 269" style="enable-background:new 0 0 223 269;" xml:space="preserve">
<style type="text/css">
	.st0{fill:#FFFFFF;}
</style>
<g>
	<path class="st0" d="M156.3,153.3c-0.6,0-1.2-0.2-1.7-0.6c-0.4-0.3-9-8-9-17.9c0-9.9,8.6-17.6,9-17.9c0.9-0.8,2.4-0.8,3.3,0
		c0.4,0.3,9,8,9,17.9c0,9.8-8.6,17.5-9,17.9C157.5,153.1,156.9,153.3,156.3,153.3z M156.3,122.4c-2.1,2.4-5.6,7.2-5.6,12.4
		c0,5.3,3.5,10,5.6,12.4c2.1-2.4,5.6-7.2,5.6-12.4C161.9,129.5,158.4,124.8,156.3,122.4z"/>
	<path class="st0" d="M142.4,166.9c-3.4,0-7.2-0.6-10.6-2.7c-8.3-5.1-10.7-16.5-10.8-17c-0.2-1.2,0.5-2.4,1.6-2.9
		c0.5-0.2,11.2-3.8,19.6,1.3l0,0c8.3,5.1,10.7,16.5,10.8,17c0.2,1.2-0.5,2.4-1.6,2.9C151.1,165.6,147.3,166.9,142.4,166.9z
		 M126.5,148.4c1,3.1,3.4,8.7,7.9,11.5c4.4,2.7,10,2.1,13.1,1.5c-1-3.1-3.4-8.7-7.9-11.5l0,0C135.2,147.2,129.6,147.8,126.5,148.4z"
		/>
	<path class="st0" d="M195.6,246.7H30.4c-9.2,0-16.6-7.6-16.6-16.9V64.7c0-3,0.8-6,2.4-8.5l22.8-36.5c2.9-4.6,7.8-7.4,13.2-7.4h59.8
		c5.4,0,10.3,2.8,13.2,7.4l16.8,26.8c2.4,3.8,6.4,6.1,10.9,6.1h37.6c-0.6-0.5-1-1.2-1-2V17.3h-30.2v15.4c0,1.4-1.1,2.5-2.5,2.5
		s-2.5-1.1-2.5-2.5V14.8c0-1.4,1.1-2.5,2.5-2.5h35.2c1.4,0,2.5,1.1,2.5,2.5v35.7c0,0.8-0.4,1.5-1,2h0.7c0.8,0,1.5,0.4,2,1l12.4,15.8
		c0.9,1.1,1.7,2.2,2.2,66.5c0.2,31.4,0.2,62.9,0.2,63.2c0,0.7-0.3,1.3-0.7,1.8c-0.5,0.5-1.1,0.7-1.8,0.7l-51.8-0.7
		c-1.4,0-2.5-1.1-2.5-2.5v-34.6c0-1.4,1.1-2.5,2.5-2.5s2.5,1.1,2.5,2.5v32.2l46.8,0.7c0-47.7-0.4-117.6-1.6-124.4l-11.4-14.4H153
		c-6.2,0-11.8-3.1-15.1-8.4l-16.8-26.8c-2-3.2-5.3-5-9-5H52.3c-3.7,0-7,1.9-9,5L20.5,58.8c-1.1,1.8-1.7,3.8-1.7,5.9v165.2
		c0,6.5,5.2,11.9,11.6,11.9h165.1c6.4,0,11.6-5.3,11.6-11.9c0-1.4,1.1-2.5,2.5-2.5s2.5,1.1,2.5,2.5
		C212.2,239.1,204.7,246.7,195.6,246.7z M204.5,71.7L204.5,71.7L204.5,71.7z M123.9,61.6H39.2c-0.9,0-1.7-0.5-2.2-1.3
		c-0.4-0.8-0.4-1.7,0-2.5l14.2-24.4c1.3-2.1,3.5-3.3,5.9-3.3h50.1c2.4,0,4.6,1.2,5.8,3.2c0,0,0.1,0.1,0.1,0.2l12.9,24.4
		c0.4,0.8,0.4,1.7-0.1,2.5S124.8,61.6,123.9,61.6z M43.6,56.6h76.2L108.8,36c-0.4-0.5-0.9-0.8-1.5-0.8H57.2c-0.7,0-1.2,0.3-1.6,0.9
		L43.6,56.6z"/>
	<path class="st0" d="M131.9,201.3c-5.9,0-13.1,0-20.2,0c-10.1,0-18.1-0.1-23.8-0.1c-3.3,0-6-0.1-7.9-0.1c-3.6-0.1-5.1-0.1-5.4-2.3
		c-0.2-1.2,0.6-2.4,1.8-2.8c6.9-2,11.9-8.9,11.9-16.5c0-9.1-7.3-16.6-16.2-16.6c-8.9,0-16.2,7.4-16.2,16.6c0,7.7,5.1,14.7,12.1,16.6
		c1.2,0.3,2,1.5,1.8,2.7s-1.2,2.2-2.5,2.2c-2.7,0-35.7,0.2-36,0.2c0,0,0,0,0,0c-1.4,0-2.5-1.1-2.5-2.5c0-1.4,1.1-2.5,2.5-2.5
		c0.9,0,16.4-0.1,26.8-0.2c-4.4-4.1-7.2-10.1-7.2-16.5c0-11.9,9.5-21.6,21.2-21.6c11.7,0,21.2,9.7,21.2,21.6
		c0,6.4-2.8,12.5-7.3,16.6c13.7,0.1,40.8,0.1,60.3,0.1c0,0,0,0,0,0c1.4,0,2.5,1.1,2.5,2.5c0,1.4-1.1,2.5-2.5,2.5
		C146.3,201.3,140.3,201.3,131.9,201.3z"/>
	<path class="st0" d="M169.3,168c-4.6,0-8.3-1.3-8.6-1.4c0,0-0.1,0-0.1,0l-4.8-2c-1.3-0.5-1.9-2-1.4-3.3s2-1.9,3.3-1.4l4.7,1.9
		c0.6,0.2,8.6,2.8,14.4-0.9c4.3-2.7,6.5-8.4,7.5-11.5c-2.9-0.6-8.1-1.2-12.2,1.4c-3.4,2.2-5.5,6.2-6.7,9.2c-0.5,1.3-1.9,1.9-3.2,1.4
		c-1.3-0.5-1.9-2-1.4-3.2c1.4-3.7,4.1-8.7,8.7-11.6c8.1-5.2,18.4-1.5,18.8-1.3c1.2,0.4,1.8,1.6,1.6,2.8c-0.1,0.5-2.3,12-10.3,17
		C176.3,167.4,172.6,168,169.3,168z"/>
</g>
</svg>
