<?xml version="1.0" encoding="utf-8"?>
<!-- Generator: Adobe Illustrator 28.0.0, SVG Export Plug-In . SVG Version: 6.00 Build 0)  -->
<svg version="1.1" id="Ebene_1" xmlns="http://www.w3.org/2000/svg" xmlns:xlink="http://www.w3.org/1999/xlink" x="0px" y="0px"
	 viewBox="0 0 223 269" style="enable-background:new 0 0 223 269;" xml:space="preserve">
<style type="text/css">
	.st0{fill:#FFFFFF;}
</style>
<g>
	<path class="st0" d="M132.3,55.6c-0.4,0-0.7-0.1-1.1-0.2c-1.2-0.6-1.8-2.1-1.2-3.3c0,0,1.5-3.4,4.4-14c1.2-4.3,0.5-8.5-1.9-11.6
		c-2.2-2.8-5.4-4.4-9.1-4.4h-21.3c-3.7,0-7,1.6-9.1,4.4c-2.4,3.1-3,7.3-1.9,11.6l0.7,2.7c0.4,1.3-0.4,2.7-1.8,3.1
		c-1.3,0.4-2.7-0.4-3.1-1.8l-0.7-2.7c-1.6-5.8-0.6-11.6,2.7-15.9c3.1-4,7.9-6.3,13.1-6.3h21.3c5.2,0,10,2.3,13.1,6.3
		c3.3,4.3,4.3,10.1,2.7,15.9c-3,11.2-4.7,14.7-4.7,14.9C134.1,55,133.2,55.6,132.3,55.6z"/>
	<path class="st0" d="M178.8,242H47.2c-8.7,0-15.8-7-15.8-15.7v-99.6c0-8.7,7.1-15.7,15.8-15.7h47.3l0-32.2H83.8
		c-5.2,0-9.4-4.2-9.4-9.3v-7.8c0-5.1,4.2-9.3,9.4-9.3h58c5.2,0,9.4,4.2,9.4,9.3v7.8c0,5.1-4.2,9.3-9.4,9.3h-10.7V111h47.7
		c8.7,0,15.8,7,15.8,15.7v99.6C194.6,235,187.5,242,178.8,242z M47.2,116c-5.9,0-10.8,4.8-10.8,10.7v99.6c0,5.9,4.8,10.7,10.8,10.7
		h131.6c5.9,0,10.8-4.8,10.8-10.7v-99.6c0-5.9-4.8-10.7-10.8-10.7H47.2z M99.5,111h26.6V78.9h-5.7c-1.4,0-2.5-1.1-2.5-2.5
		s1.1-2.5,2.5-2.5h21.4c2.4,0,4.4-1.9,4.4-4.3v-7.8c0-2.4-2-4.3-4.4-4.3h-58c-2.4,0-4.4,1.9-4.4,4.3v7.8c0,2.4,2,4.3,4.4,4.3H97
		c1.4,0,2.5,1.1,2.5,2.5L99.5,111z M174.6,223.1H52.9c-1.4,0-2.5-1.1-2.5-2.5v-64.9c0-1.4,1.1-2.5,2.5-2.5s2.5,1.1,2.5,2.5v62.4
		h116.7v-59.9H80.5c-1.4,0-2.5-1.1-2.5-2.5s1.1-2.5,2.5-2.5h94.1c1.4,0,2.5,1.1,2.5,2.5v64.9C177.1,222,176,223.1,174.6,223.1z"/>
</g>
</svg>
