<?xml version="1.0" encoding="utf-8"?>
<!-- Generator: Adobe Illustrator 28.0.0, SVG Export Plug-In . SVG Version: 6.00 Build 0)  -->
<svg version="1.1" id="Ebene_1" xmlns="http://www.w3.org/2000/svg" xmlns:xlink="http://www.w3.org/1999/xlink" x="0px" y="0px"
	 viewBox="0 0 371 312" style="enable-background:new 0 0 371 312;" xml:space="preserve">
<style type="text/css">
	.st0{fill:#FFFFFF;}
</style>
<g>
	<path class="st0" d="M204.5,284.3h-164c-6.2,0-11.8-2.6-14.9-7c-1.6-2.2-2.5-4.8-2.5-7.4V252c0-1.4,1.1-2.5,2.5-2.5
		s2.5,1.1,2.5,2.5v17.9c0,1.6,0.5,3.1,1.5,4.5c2.2,3,6.4,4.9,10.9,4.9h164c6.8,0,12.4-4.2,12.4-9.4v-14.8H43.5
		c-1.4,0-2.5-1.1-2.5-2.5v-87.5c0-1.4,1.1-2.5,2.5-2.5l173.4-1v-19.2c0-4.3-3.8-8-9.3-9.1l-37.1-7.4c-7.8-1.6-13.3-7.3-13.3-14
		c0,0,0-0.1,0-0.1h-34.8c-1.4,0-2.5-1.1-2.5-2.5s1.1-2.5,2.5-2.5h37.3c6.8,0,12.4-4.2,12.4-9.4V73.7c0-5.2-5.6-9.4-12.4-9.4H85.2
		c-6.8,0-12.4,4.2-12.4,9.4v23.8c0,5.2,5.6,9.4,12.4,9.4c1.4,0,2.5,1.1,2.5,2.5c0,0.5-0.1,0.9-0.4,1.3c0.2,0.4,0.4,0.8,0.4,1.3
		c0,6.7-5.5,12.4-13.3,14l-37.1,7.4c-5.5,1.1-9.3,4.8-9.3,9.1v21.4c0,1.4-1.1,2.5-2.5,2.5s-2.5-1.1-2.5-2.5v-21.4
		c0-6.7,5.5-12.4,13.3-14l37.1-7.4c5.5-1.1,9.3-4.8,9.3-9.1c0-0.1,0-0.2,0-0.3c-8.4-1-14.9-7-14.9-14.2V73.7
		c0-7.9,7.8-14.4,17.4-14.4h74.6c9.6,0,17.4,6.5,17.4,14.4v23.8c0,7.2-6.5,13.2-14.9,14.2c0,0.1,0,0.2,0,0.3c0,4.3,3.8,8,9.3,9.1
		l37.1,7.4c7.8,1.6,13.3,7.3,13.3,14v21.7c0,1.4-1.1,2.5-2.5,2.5l-173.4,1v82.5h173.4c1.4,0,2.5,1.1,2.5,2.5v17.3
		C221.9,277.8,214.1,284.3,204.5,284.3z"/>
</g>
<path class="st0" d="M208.3,255.4c-1.4,0-2.5-1.1-2.5-2.5v-87.7c0-1.4,1.1-2.5,2.5-2.5s2.5,1.1,2.5,2.5v87.7
	C210.8,254.3,209.7,255.4,208.3,255.4z"/>
<g>
	<path class="st0" d="M312.2,144.3c-8,0-14.5-6.5-14.5-14.5s6.5-14.5,14.5-14.5s14.5,6.5,14.5,14.5S320.2,144.3,312.2,144.3z
		 M312.2,120.3c-5.2,0-9.5,4.3-9.5,9.5s4.3,9.5,9.5,9.5s9.5-4.3,9.5-9.5S317.4,120.3,312.2,120.3z"/>
	<path class="st0" d="M259.7,100c-25.7,0-46.7-20.9-46.7-46.7c0-25.7,20.9-46.7,46.7-46.7s46.7,20.9,46.7,46.7
		C306.3,79.1,285.4,100,259.7,100z M259.7,11.7c-23,0-41.7,18.7-41.7,41.7c0,23,18.7,41.7,41.7,41.7s41.7-18.7,41.7-41.7
		C301.3,30.4,282.6,11.7,259.7,11.7z"/>
	<path class="st0" d="M332.2,108.6c-11.5,0-20.8-9.3-20.8-20.8c0-11.5,9.3-20.8,20.8-20.8S353,76.3,353,87.8
		C353,99.3,343.7,108.6,332.2,108.6z M332.2,71.9c-8.7,0-15.8,7.1-15.8,15.8c0,8.7,7.1,15.8,15.8,15.8S348,96.5,348,87.8
		C348,79,340.9,71.9,332.2,71.9z"/>
	<path class="st0" d="M275.2,74.3c0.2-0.3,0.4-0.6,0.7-1c0.3-0.3,1-1,2.1-2c1.1-1,1.9-1.8,2.3-2.3c0.6-0.8,1.1-1.6,1.4-2.3
		s0.4-1.5,0.4-2.3c0-1.4-0.5-2.7-1.5-3.6c-1-1-2.4-1.5-4.2-1.5c-1.6,0-3,0.4-4.1,1.3c-1.1,0.8-1.7,2.2-2,4.1l3.5,0.3
		c0.1-1,0.3-1.8,0.7-2.2c0.4-0.4,1-0.7,1.7-0.7c0.7,0,1.3,0.2,1.7,0.6c0.4,0.4,0.6,1,0.6,1.8c0,0.7-0.2,1.4-0.7,2.1
		c-0.4,0.5-1.3,1.5-2.9,3c-2,1.8-3.3,3.3-3.9,4.4c-0.7,1.1-1.1,2.3-1.2,3.5h12.3v-3.2H275.2z M246.1,39.2c1.6-1.8,3.7-2.7,6.3-2.7
		c2.6,0,4.7,0.9,6.3,2.6c1.6,1.8,2.4,4.4,2.4,8c0,3.6-0.8,6.4-2.4,8.2c-1.6,1.8-3.7,2.7-6.2,2.7c-2.5,0-4.6-0.9-6.2-2.7
		c-1.6-1.8-2.5-4.5-2.5-8.1C243.7,43.7,244.5,41,246.1,39.2 M241.3,59.2c2.7,2.8,6.4,4.3,11.1,4.3c4.6,0,8.3-1.4,11-4.3
		c2.7-2.9,4.1-6.8,4.1-11.9c0-5.1-1.4-9.1-4.2-11.9c-2.8-2.9-6.5-4.3-11.1-4.3c-2.5,0-4.8,0.4-6.7,1.2c-1.5,0.6-2.8,1.6-4,2.8
		c-1.2,1.3-2.2,2.7-2.9,4.3c-1,2.2-1.4,4.8-1.4,8C237.2,52.5,238.5,56.4,241.3,59.2"/>
</g>
</svg>
