<?xml version="1.0" encoding="utf-8"?>
<!-- Generator: Adobe Illustrator 28.0.0, SVG Export Plug-In . SVG Version: 6.00 Build 0)  -->
<svg version="1.1" id="Ebene_1" xmlns="http://www.w3.org/2000/svg" xmlns:xlink="http://www.w3.org/1999/xlink" x="0px" y="0px"
	 viewBox="0 0 150 850" style="enable-background:new 0 0 150 850;" xml:space="preserve">
<style type="text/css">
	.st0{fill:#009EE3;}
	.st1{fill:none;stroke:#99D8F4;stroke-width:10;stroke-linecap:round;stroke-linejoin:round;stroke-dasharray:28.667,18.667;}
	.st2{fill:none;stroke:#99D8F4;stroke-width:10;stroke-linecap:round;stroke-linejoin:round;}
</style>
<g>
	<path class="st0" d="M94.6,666.8v-84.1c-0.2-2.6,1.5-6.3,3.8-8.4c4.4-3.8,7.2-9,7.2-14.8V51.7c0-6.6-5.4-12-12-12H79.1
		c-14.6,0-26.5,17.9-26.5,40v198.6c-0.6,4.1,1.7,10.6,5.3,14.6c1.7,1.9,2.8,4.5,2.8,7.3v131c0.2,2.1-1.1,5.4-2.8,7.3
		c-3.6,4-5.3,9.3-5.3,14.6v346.1c0,6.6,5.4,12,12,12h14.5c14.6,0,26.5-17.9,26.5-40V690c0.4-4.4-2.8-11.1-7.2-14.8
		C96.1,673.1,94.6,670.1,94.6,666.8"/>
	<line class="st1" x1="66.2" y1="519.8" x2="66.2" y2="737.8"/>
	<line class="st2" x1="71.2" y1="74.9" x2="71.2" y2="278.9"/>
	<line class="st2" x1="91.2" y1="341.7" x2="91.2" y2="545.7"/>
</g>
</svg>
