<?xml version="1.0" encoding="utf-8"?>
<!-- Generator: Adobe Illustrator 28.0.0, SVG Export Plug-In . SVG Version: 6.00 Build 0)  -->
<svg version="1.1" id="Ebene_1" xmlns="http://www.w3.org/2000/svg" xmlns:xlink="http://www.w3.org/1999/xlink" x="0px" y="0px"
	 viewBox="0 0 295 309" style="enable-background:new 0 0 295 309;" xml:space="preserve">
<style type="text/css">
	.st0{fill:#FFFFFF;}
</style>
<path class="st0" d="M60.2,172.3c-2.2,0-3.9-1.7-4-3.9l-2.4-95.8c-0.1-2.2,1.7-4,3.9-4.1c2.2,0,4,1.7,4.1,3.9l2.4,95.8
	c0.1,2.2-1.7,4-3.9,4.1C60.2,172.3,60.2,172.3,60.2,172.3z"/>
<g>
	<path class="st0" d="M118.4,273.5c-37.7,0-51.5-0.7-58.2-7.4c-3.9-3.9-4.4-8.9-4.4-13.4v-59.8c0-2.2,1.8-4,4-4s4,1.8,4,4v59.8
		c0,4.1,0.6,6.3,2,7.8c5.2,5.2,24.5,5.1,67,5c5.9,0,12.3,0,19.2,0c6.8,0,13.1,0,19,0c42.8,0.1,64.2,0.1,69.9-5.5
		c1-1,2.1-2.7,2.1-7.3V50.6c0-2.2,1.8-4,4-4s4,1.8,4,4v202.1c0,3.7-0.5,9-4.5,13c-8,8-26.4,7.9-75.6,7.8c-5.9,0-12.2,0-19,0
		c-6.9,0-13.3,0-19.2,0C127.6,273.5,122.8,273.5,118.4,273.5z M197.6,205.1h-91.2c-2.2,0-4-1.8-4-4v-24.4c0-2.2,1.8-4,4-4h91.2
		c2.2,0,4,1.8,4,4v24.4C201.6,203.4,199.8,205.1,197.6,205.1z M110.4,197.1h83.2v-16.4h-83.2V197.1z"/>
	<path class="st0" d="M217.3,195.8L217.3,195.8l-19.1,0c-2.2,0-4-1.8-4-4s1.8-4,4-4l0,0l17.5,0l51.6-47.4v-35.8h-19.8
		c-2.2,0-4-1.8-4-4s1.8-4,4-4h23.8c2.2,0,4,1.8,4,4v41.5c0,1.1-0.5,2.2-1.3,2.9L220,194.8C219.3,195.5,218.3,195.8,217.3,195.8z
		 M86.7,195.8c-1,0-2-0.4-2.7-1.1l-54.1-49.6c-0.8-0.8-1.3-1.8-1.3-2.9v-41.5c0-2.2,1.8-4,4-4h23.8c2.2,0,4,1.8,4,4s-1.8,4-4,4H36.6
		v35.8l51.6,47.4l17.5,0c2.2,0,4,1.8,4,4c0,2.2-1.8,4-4,4L86.7,195.8z M174.8,137.8c-5.2,0-9.5-1.7-12.7-5
		c-5.5-5.7-5.4-14.3-5.4-15.4V102c0.1-5.9-4.5-9.3-9.1-9.5c-4.1-0.2-8.8,1.9-9.3,8.7c-0.9,9.9-8,21.5-25.5,21.5
		c-6.7,0-12.1-2-16.1-6.1c-7.5-7.5-7.4-19.3-7.4-23.7l0-0.5V54c0-2.2,1.8-4,4-4s4,1.8,4,4l0,39.1c0,3.5-0.1,12.9,5.1,18
		c2.5,2.5,5.9,3.7,10.4,3.7c15.1,0,17.2-10.9,17.5-14.2c0.7-8.1,6.6-16.6,17.7-16c8.3,0.5,17,6.8,16.7,17.6l0,15.3
		c0,0.1,0,0.1,0,0.2c0,0-0.2,6.2,3.2,9.7c1.6,1.7,3.9,2.5,6.9,2.5c3.1,0,5.2-0.7,6.6-2.1c2.6-2.7,2.5-8.2,2.4-12.6
		c0-0.8,0-1.6,0-2.3l0.1-16.6c-0.1-3.9,1.7-11.3,8.7-14.3c7.5-3.1,13.8-0.1,19.5,3.7c0.2,0.1,4.8,3.1,11.3,1.6
		c6.8-1.6,13.3-7.4,19.2-17.3c1.1-1.9,3.6-2.5,5.5-1.4c1.9,1.1,2.5,3.6,1.4,5.5c-7.1,12-15.4,19.1-24.5,21.1
		c-9.9,2.2-17-2.7-17.3-2.9c-6.1-4-9-4.1-11.9-2.9c-3.8,1.6-3.8,6.6-3.8,6.8l-0.1,16.7c0,0.7,0,1.4,0,2.2c0.1,5.6,0.3,13.3-4.7,18.4
		C184.2,136.3,180,137.8,174.8,137.8z"/>
	<path class="st0" d="M257.1,53.5H46.9c-2.2,0-4-1.8-4-4s1.8-4,4-4h210.1c2.2,0,4,1.8,4,4S259.3,53.5,257.1,53.5z"/>
</g>
</svg>
