<?xml version="1.0" encoding="utf-8"?>
<!-- Generator: Adobe Illustrator 28.0.0, SVG Export Plug-In . SVG Version: 6.00 Build 0)  -->
<svg version="1.1" id="Ebene_1" xmlns="http://www.w3.org/2000/svg" xmlns:xlink="http://www.w3.org/1999/xlink" x="0px" y="0px"
	 viewBox="0 0 223 269" style="enable-background:new 0 0 223 269;" xml:space="preserve">
<style type="text/css">
	.st0{fill:#FFFFFF;}
</style>
<g>
	<path class="st0" d="M163.9,242H23.8c-8,0-14.5-6.6-14.5-14.7V86.9c0-2.6,0.7-5.2,2.1-7.4l19.4-31c2.5-4,6.8-6.5,11.6-6.5h50.8
		c4.7,0,9,2.4,11.6,6.4l14.2,22.8c1.9,3.1,5.3,5,8.9,5c0.2,0,0.5,0,0.7,0.1l45.7,13.4c0.5,0.1,0.9,0.4,1.3,0.9c1.9,2.5,3,5.5,3,8.7
		c0,1.4-1.1,2.5-2.5,2.5s-2.5-1.1-2.5-2.5c0-1.8-0.5-3.5-1.5-5l-44.5-13.1c-5.2-0.1-10-2.8-12.8-7.3l-14.2-22.8
		c-1.6-2.6-4.3-4.1-7.3-4.1H42.3c-3,0-5.7,1.5-7.3,4.1l-19.4,31c-0.9,1.4-1.4,3.1-1.4,4.8v140.4c0,5.4,4.3,9.7,9.5,9.7h140.1
		c5.2,0,9.5-4.4,9.5-9.7V123.6c0-1.4,1.1-2.5,2.5-2.5s2.5,1.1,2.5,2.5v103.7C178.4,235.4,171.9,242,163.9,242z M103.1,84.7H31.2
		c-0.9,0-1.7-0.5-2.2-1.3c-0.4-0.8-0.4-1.7,0-2.5l12.1-20.7c1.2-1.9,3.2-3,5.3-3H89c2.1,0,4.1,1.1,5.3,2.9c0,0.1,0.1,0.1,0.1,0.2
		l11,20.7c0.4,0.8,0.4,1.7-0.1,2.5S104,84.7,103.1,84.7z M35.6,79.7H99l-9-16.9c-0.2-0.3-0.6-0.5-1-0.5H46.4c-0.4,0-0.8,0.2-1,0.6
		L35.6,79.7z"/>
	<path class="st0" d="M173.1,90.6c-1.4,0-2.5-1.1-2.5-2.5l-0.1-14.7c0-0.9-0.4-1.7-1.1-2.2c-0.2,0-0.4-0.1-0.6-0.1
		c-0.3-0.1-0.6-0.3-0.9-0.5l-20-5c-1.3-0.3-2.7,0.3-3.3,1.5L139,77.5c-0.6,1.2-2.2,1.7-3.4,1c-1.2-0.6-1.7-2.2-1-3.4l5.6-10.5
		c1.4-2.7,4.3-4.3,7.3-4.2l10.6-15.3c1.3-1.9,3-3.4,5.1-4.5l42.2-22.9c3-1.6,6.7-0.6,8.4,2.3l2.2,3.7c1.7,3,0.8,6.7-2.1,8.5
		l-33.9,21c-1.9,1.2-3.3,2.9-4,5l-3.2,9.1c1.7,1.5,2.8,3.6,2.8,6l0.1,14.7C175.6,89.5,174.5,90.6,173.1,90.6
		C173.1,90.6,173.1,90.6,173.1,90.6z M152.8,61.6l15.3,3.8l3-8.8c1.1-3.2,3.3-5.9,6.1-7.6l33.9-21c0.6-0.4,0.8-1.1,0.4-1.7l-2.2-3.7
		c-0.4-0.6-1.1-0.8-1.7-0.5L165.5,45c-1.3,0.7-2.5,1.7-3.3,3L152.8,61.6z"/>
</g>
</svg>
