<?xml version="1.0" encoding="utf-8"?>
<!-- Generator: Adobe Illustrator 28.0.0, SVG Export Plug-In . SVG Version: 6.00 Build 0)  -->
<svg version="1.1" id="Ebene_1" xmlns="http://www.w3.org/2000/svg" xmlns:xlink="http://www.w3.org/1999/xlink" x="0px" y="0px"
	 viewBox="0 0 295 309" style="enable-background:new 0 0 295 309;" xml:space="preserve">
<style type="text/css">
	.st0{fill:#FFFFFF;}
</style>
<g>
	<path class="st0" d="M185.2,273.5c-4.4,0-9.2,0-14.3,0c-5.9,0-12.2,0-18.9,0c-6.8,0-13.2,0-19.1,0c-48.9,0.1-67.2,0.1-75-7.7
		c-3.9-3.9-4.4-9.1-4.4-13.1V74.2c0-2.2,1.8-4,4-4s4,1.8,4,4v24.1h44.8c2.2,0,4,1.8,4,4s-1.8,4-4,4H61.4v20.6h44.8c2.2,0,4,1.8,4,4
		s-1.8,4-4,4H61.4v20.6h44.8c2.2,0,4,1.8,4,4s-1.8,4-4,4H61.4v20.6h44.8c2.2,0,4,1.8,4,4s-1.8,4-4,4H61.4v20.6h44.8c2.2,0,4,1.8,4,4
		s-1.8,4-4,4H61.4v31.9c0,4.7,1.1,6.4,2.1,7.4c5.5,5.5,26.9,5.5,69.4,5.4c5.9,0,12.3,0,19.2,0c6.8,0,13.1,0,18.9,0
		c42.6,0.1,64,0.1,69.6-5.5c1-1,2.1-2.7,2.1-7.3V53.5H46.9c-2.2,0-4-1.8-4-4s1.8-4,4-4h210.1c2.2,0,4,1.8,4,4s-1.8,4-4,4h-6.4v199.2
		c0,3.7-0.5,9-4.5,13C239,272.8,223.6,273.5,185.2,273.5z"/>
</g>
</svg>
