<?xml version="1.0" encoding="utf-8"?>
<!-- Generator: Adobe Illustrator 28.0.0, SVG Export Plug-In . SVG Version: 6.00 Build 0)  -->
<svg version="1.1" id="Ebene_1" xmlns="http://www.w3.org/2000/svg" xmlns:xlink="http://www.w3.org/1999/xlink" x="0px" y="0px"
	 viewBox="0 0 769 432" style="enable-background:new 0 0 769 432;" xml:space="preserve">
<style type="text/css">
	.st0{fill:#FFFFFF;}
</style>
<g>
	<rect x="24.6" y="118.8" class="st0" width="130.1" height="2.7"/>
</g>
<rect x="589.6" y="118.8" class="st0" width="130.1" height="2.7"/>
<rect x="236.6" y="118.8" class="st0" width="87.5" height="2.7"/>
<rect x="355.6" y="174.8" class="st0" width="2.7" height="87.5"/>
<g>
	<polygon class="st0" points="125.6,372.7 89.4,372.7 89.4,29.1 125.6,29.1 125.6,31.9 92.1,31.9 92.1,369.9 125.6,369.9 	"/>
	<polygon class="st0" points="661.7,372.7 625.5,372.7 625.5,369.9 658.9,369.9 658.9,31.9 625.5,31.9 625.5,29.1 661.7,29.1 	"/>
</g>
<rect x="373.6" y="174.8" class="st0" width="2.7" height="87.5"/>
<rect x="413.1" y="118.8" class="st0" width="87.5" height="2.7"/>
<g>
	<path class="st0" d="M171.6,149.2V90.7h25.9c5.2,0,9.2,0.5,11.9,1.6s4.9,2.9,6.5,5.6c1.6,2.7,2.4,5.6,2.4,8.8c0,4.1-1.3,7.6-4,10.5
		c-2.7,2.8-6.8,4.7-12.4,5.4c2,1,3.6,2,4.7,2.9c2.3,2.1,4.4,4.7,6.4,7.8l10.2,15.9h-9.7l-7.7-12.2c-2.3-3.5-4.1-6.2-5.6-8.1
		c-1.5-1.9-2.8-3.2-3.9-3.9c-1.2-0.7-2.3-1.3-3.5-1.6c-0.9-0.2-2.3-0.3-4.3-0.3h-9v26H171.6z M179.3,116.5h16.6
		c3.5,0,6.3-0.4,8.3-1.1c2-0.7,3.5-1.9,4.5-3.5c1-1.6,1.6-3.4,1.6-5.2c0-2.8-1-5-3-6.8c-2-1.8-5.2-2.7-9.5-2.7h-18.5V116.5z"/>
</g>
<g>
	<path class="st0" d="M527.4,149.2V90.7h7.9l30.7,45.9V90.7h7.4v58.4h-7.9l-30.7-45.9v45.9H527.4z"/>
</g>
<g>
	<path class="st0" d="M527.7,231v-58.4h7.7v24h30.4v-24h7.7V231h-7.7v-27.5h-30.4V231H527.7z"/>
</g>
<g>
	<path class="st0" d="M384.5,128.7l7.7,2c-1.6,6.4-4.5,11.2-8.8,14.5c-4.2,3.3-9.4,5-15.4,5c-6.3,0-11.4-1.3-15.4-3.8
		c-3.9-2.6-7-6.3-9-11.1c-2.1-4.9-3.1-10.1-3.1-15.7c0-6.1,1.2-11.4,3.5-15.9s5.6-8,9.9-10.3c4.3-2.4,9-3.5,14.2-3.5
		c5.8,0,10.8,1.5,14.8,4.5s6.8,7.2,8.3,12.6l-7.6,1.8c-1.4-4.3-3.3-7.3-5.9-9.3c-2.6-1.9-5.8-2.9-9.7-2.9c-4.5,0-8.2,1.1-11.3,3.2
		c-3,2.2-5.1,5-6.4,8.7s-1.8,7.4-1.8,11.2c0,5,0.7,9.3,2.2,13c1.4,3.7,3.7,6.5,6.8,8.3s6.4,2.8,9.9,2.8c4.3,0,8-1.2,11-3.7
		C381.4,137.3,383.4,133.6,384.5,128.7z"/>
</g>
<g>
	<path class="st0" d="M338.1,314.3c0-9.7,2.6-17.3,7.8-22.8c5.2-5.5,11.9-8.2,20.2-8.2c5.4,0,10.3,1.3,14.6,3.9
		c4.3,2.6,7.6,6.2,9.9,10.8c2.3,4.6,3.4,9.8,3.4,15.7c0,5.9-1.2,11.2-3.6,15.9c-2.4,4.7-5.8,8.2-10.2,10.6
		c-4.4,2.4-9.1,3.6-14.2,3.6c-5.5,0-10.4-1.3-14.8-4c-4.3-2.7-7.6-6.3-9.8-10.9C339.2,324.3,338.1,319.4,338.1,314.3z M346.1,314.4
		c0,7,1.9,12.6,5.7,16.6c3.8,4.1,8.5,6.1,14.3,6.1c5.8,0,10.6-2,14.4-6.1c3.8-4.1,5.6-9.9,5.6-17.4c0-4.8-0.8-8.9-2.4-12.5
		c-1.6-3.5-4-6.3-7.1-8.3c-3.1-2-6.6-2.9-10.4-2.9c-5.5,0-10.2,1.9-14.1,5.6C348.1,299.3,346.1,305.6,346.1,314.4z"/>
</g>
<g>
	<g>
		<path class="st0" d="M691,402.4l8.9-42.3h6.5l-1.6,7.4c2.8-2.9,5.5-5,8-6.3c2.5-1.3,5-2,7.6-2c3.4,0,6.1,0.9,8.1,2.8
			s2.9,4.3,2.9,7.5c0,1.6-0.3,4-1,7.4l-5.4,25.6h-7.2l5.6-26.8c0.6-2.6,0.8-4.5,0.8-5.8c0-1.4-0.5-2.6-1.5-3.4s-2.4-1.3-4.2-1.3
			c-3.7,0-7,1.3-9.9,4c-2.9,2.7-5,7.2-6.4,13.7l-4.1,19.7H691z"/>
	</g>
</g>
</svg>
