<?xml version="1.0" encoding="utf-8"?>
<!-- Generator: Adobe Illustrator 28.0.0, SVG Export Plug-In . SVG Version: 6.00 Build 0)  -->
<svg version="1.1" id="Ebene_1" xmlns="http://www.w3.org/2000/svg" xmlns:xlink="http://www.w3.org/1999/xlink" x="0px" y="0px"
	 viewBox="0 0 590 432" style="enable-background:new 0 0 590 432;" xml:space="preserve">
<style type="text/css">
	.st0{fill:#FFFFFF;}
</style>
<rect x="114.9" y="145.1" class="st0" width="2.7" height="84.5"/>
<g>
	
		<rect x="10.1" y="256.3" transform="matrix(0.8662 -0.4997 0.4997 0.8662 -119.7617 68.0197)" class="st0" width="114.1" height="2.7"/>
</g>
<rect x="201.5" y="254.4" transform="matrix(0.8662 -0.4997 0.4997 0.8662 -93.2001 163.429)" class="st0" width="114.1" height="2.7"/>
<rect x="393" y="251.6" transform="matrix(0.8662 -0.4997 0.4997 0.8662 -66.2061 258.7226)" class="st0" width="114.1" height="2.7"/>
<g>
	<polygon class="st0" points="76.2,369 40.7,369 40.7,32.2 76.2,32.2 76.2,34.9 43.5,34.9 43.5,366.3 76.2,366.3 	"/>
	<polygon class="st0" points="324.6,369 289.1,369 289.1,32.2 324.6,32.2 324.6,34.9 291.8,34.9 291.8,366.3 324.6,366.3 	"/>
	<polygon class="st0" points="227.9,369 192.4,369 192.4,366.3 225.1,366.3 225.1,34.9 192.4,34.9 192.4,32.2 227.9,32.2 	"/>
	<polygon class="st0" points="476.2,369 440.7,369 440.7,366.3 473.5,366.3 473.5,34.9 440.7,34.9 440.7,32.2 476.2,32.2 	"/>
</g>
<g>
	<path class="st0" d="M61.2,94.7c0-9.7,2.6-17.3,7.8-22.8c5.2-5.5,11.9-8.2,20.2-8.2c5.4,0,10.3,1.3,14.6,3.9s7.6,6.2,9.9,10.8
		c2.3,4.6,3.4,9.8,3.4,15.7c0,5.9-1.2,11.2-3.6,15.9c-2.4,4.7-5.8,8.2-10.2,10.6c-4.4,2.4-9.1,3.6-14.2,3.6c-5.5,0-10.4-1.3-14.8-4
		c-4.3-2.7-7.6-6.3-9.8-10.9C62.3,104.7,61.2,99.8,61.2,94.7z M69.2,94.8c0,7,1.9,12.6,5.7,16.6c3.8,4.1,8.5,6.1,14.3,6.1
		c5.8,0,10.6-2,14.4-6.1s5.6-9.9,5.6-17.4c0-4.8-0.8-8.9-2.4-12.5c-1.6-3.5-4-6.3-7.1-8.3c-3.1-2-6.6-2.9-10.4-2.9
		c-5.5,0-10.2,1.9-14.1,5.6C71.1,79.7,69.2,86,69.2,94.8z"/>
	<path class="st0" d="M126,123.1V64.7h7.7v24h30.4v-24h7.7v58.4h-7.7V95.6h-30.4v27.5H126z"/>
</g>
<g>
	<g>
		<path class="st0" d="M239.5,399.3l8.9-42.3h6.5l-1.6,7.4c2.8-2.9,5.5-5,8-6.3c2.5-1.3,5-2,7.6-2c3.4,0,6.1,0.9,8.1,2.8
			c2,1.9,2.9,4.3,2.9,7.5c0,1.6-0.3,4-1,7.4l-5.4,25.6h-7.2l5.6-26.8c0.6-2.6,0.8-4.5,0.8-5.8c0-1.4-0.5-2.6-1.5-3.4
			c-1-0.9-2.4-1.3-4.2-1.3c-3.7,0-7,1.3-9.9,4c-2.9,2.7-5,7.2-6.4,13.7l-4.1,19.7H239.5z"/>
	</g>
	<g>
		<path class="st0" d="M495.9,399.3l8.9-42.3h7.2l-1.5,7c2.7-3,5.1-5.1,7.2-6.2c2.1-1.1,4.4-1.7,6.9-1.7c2.6,0,4.8,0.7,6.6,2.1
			c1.8,1.4,2.9,3.3,3.5,5.8c2.2-2.7,4.4-4.6,6.8-6c2.4-1.3,4.9-2,7.5-2c3.5,0,6.2,0.8,8,2.5c1.8,1.7,2.7,4,2.7,7.1
			c0,1.3-0.3,3.5-0.9,6.5l-5.7,27.3h-7.2l5.8-28c0.5-2.3,0.8-3.9,0.8-4.9c0-1.4-0.4-2.5-1.3-3.3c-0.9-0.8-2.1-1.2-3.7-1.2
			c-2.2,0-4.3,0.7-6.6,2c-2.2,1.3-4,3-5.2,5.1c-1.2,2.1-2.3,5.4-3.2,9.7l-4.3,20.5h-7.2l6-28.6c0.4-1.9,0.6-3.3,0.6-4.1
			c0-1.4-0.4-2.5-1.3-3.3c-0.9-0.8-2-1.3-3.4-1.3c-2,0-4.2,0.7-6.4,2c-2.2,1.3-4.1,3.1-5.5,5.4c-1.4,2.3-2.6,5.6-3.5,9.9l-4.2,20
			H495.9z"/>
	</g>
</g>
<rect x="161.2" y="202" transform="matrix(0.4998 -0.8662 0.8662 0.4998 -140.6643 268.9778)" class="st0" width="2.7" height="108.6"/>
<rect x="352.6" y="200.1" transform="matrix(0.4998 -0.8662 0.8662 0.4998 -43.2535 433.8564)" class="st0" width="2.7" height="108.6"/>
</svg>
