<?xml version="1.0" encoding="utf-8"?>
<!-- Generator: Adobe Illustrator 28.0.0, SVG Export Plug-In . SVG Version: 6.00 Build 0)  -->
<svg version="1.1" id="Ebene_1" xmlns="http://www.w3.org/2000/svg" xmlns:xlink="http://www.w3.org/1999/xlink" x="0px" y="0px"
	 viewBox="0 0 321 473.8" style="enable-background:new 0 0 321 473.8;" xml:space="preserve">
<style type="text/css">
	.st0{fill:#009FE3;}
</style>
<g>
	<path class="st0" d="M301.4,122.4l-81.2,9c-2-16.7-7.2-29.1-15.5-37c-8.4-8-19.2-11.9-32.6-11.9c-17.7,0-32.7,8-44.9,23.9
		c-12.2,15.9-20,49.1-23.1,99.4c20.9-24.7,46.9-37,77.9-37c35,0,65,13.3,90,40c25,26.7,37.5,61.1,37.5,103.3
		c0,44.8-13.1,80.7-39.4,107.8c-26.3,27.1-60,40.6-101.2,40.6c-44.2,0-80.5-17.2-109-51.5C31.4,374.6,17.1,318.3,17.1,240
		C17.1,159.8,32,102,61.6,66.5c29.7-35.4,68.2-53.2,115.6-53.2c33.2,0,60.8,9.3,82.6,27.9C281.6,59.9,295.5,86.9,301.4,122.4z
		 M111.2,305.4c0,27.3,6.3,48.3,18.8,63.2c12.5,14.8,26.9,22.2,43,22.2c15.5,0,28.5-6.1,38.8-18.2c10.3-12.1,15.5-32.1,15.5-59.7
		c0-28.5-5.6-49.3-16.7-62.6c-11.2-13.2-25.1-19.9-41.8-19.9c-16.1,0-29.8,6.3-40.9,19C116.8,262.1,111.2,280.8,111.2,305.4z"/>
</g>
</svg>
