<?xml version="1.0" encoding="utf-8"?>
<!-- Generator: Adobe Illustrator 28.0.0, SVG Export Plug-In . SVG Version: 6.00 Build 0)  -->
<svg version="1.1" id="Ebene_1" xmlns="http://www.w3.org/2000/svg" xmlns:xlink="http://www.w3.org/1999/xlink" x="0px" y="0px"
	 viewBox="0 0 244 153" style="enable-background:new 0 0 244 153;" xml:space="preserve">
<style type="text/css">
	.st0{opacity:0.5;}
	.st1{fill:#009FE3;}
</style>
<g class="st0">
	<g>
		<g>
			<path class="st1" d="M128.4,45c-1.5,15.1-1.9,20.2-2.8,30.5c-41.1-3-84.8-16.1-97.1-38.4c-2.2-4-3.4-8.4-3.4-13l-0.5,8
				c0.1,4.9,0.1,7.9,0.2,10.4c0.2,2.5,0.5,5.5,1.1,10.3c5.9,26.8,41.5,47.2,97.5,56c-0.2,5.3-0.4,8.7-0.4,11.6
				c-0.1,2.9-0.1,5.2-0.1,8.4c27.8-4.6,67.8-16.4,100.6-46.3C209.2,79.3,171.4,69,128.4,45"/>
		</g>
	</g>
</g>
</svg>
