<?xml version="1.0" encoding="utf-8"?>
<!-- Generator: Adobe Illustrator 28.0.0, SVG Export Plug-In . SVG Version: 6.00 Build 0)  -->
<svg version="1.1" id="Ebene_1" xmlns="http://www.w3.org/2000/svg" xmlns:xlink="http://www.w3.org/1999/xlink" x="0px" y="0px"
	 viewBox="0 0 223 269" style="enable-background:new 0 0 223 269;" xml:space="preserve">
<style type="text/css">
	.st0{fill:#FFFFFF;}
</style>
<g>
	<path class="st0" d="M121.7,247c-22.9,0-41.5-19.1-41.5-42.6c0-0.9,0-1.8,0.1-2.8c-26.3-5-45.9-28.5-45.9-55.5
		c0-31.2,25.4-56.5,56.6-56.5c5.8,0,11.6,0.9,17.1,2.6c2.1-4.8,5-9.2,8.6-12.9c-7.6-6-12.1-15.3-12.1-25.3
		c0-17.6,13.9-31.9,31.1-31.9s31.1,14.3,31.1,31.9c0,5.7-1.5,11.3-4.3,16.2c15.1,6.7,25.1,22,25.1,39.1c0,23-17.9,41.9-40.2,42.6
		c-0.6,5.6-2,11-4.1,16.2c12.4,7.7,19.9,21.5,19.9,36.4C163.2,227.9,144.6,247,121.7,247z M91.1,94.5c-28.5,0-51.6,23.1-51.6,51.5
		c0,25.4,18.9,47.3,44,51c1.3,0.2,2.3,1.4,2.1,2.8c-0.2,1.7-0.3,3.2-0.3,4.6c0,20.7,16.4,37.6,36.5,37.6c20.1,0,36.5-16.9,36.5-37.6
		c0-13.9-7.4-26.6-19.3-33.2c-1.2-0.6-1.6-2.1-1.1-3.3c2.8-5.9,4.4-12.2,4.8-18.8c0.1-1.3,1.2-2.4,2.6-2.4c0.2,0,0.4,0,0.6,0
		c0.1,0,0.3,0,0.4,0c20.1,0,36.5-16.9,36.5-37.6c0-16.1-9.9-30.4-24.7-35.6c-0.7-0.3-1.3-0.9-1.6-1.6c-0.2-0.7-0.1-1.6,0.3-2.2
		c3.3-4.7,5.1-10.2,5.1-15.9c0-14.8-11.7-26.9-26.1-26.9s-26.1,12.1-26.1,26.9c0,9.4,4.6,17.9,12.4,22.9c0.7,0.4,1.1,1.1,1.1,1.9
		c0.1,0.8-0.2,1.5-0.8,2.1c-4.6,4.1-8.2,9.4-10.4,15.3c-0.2,0.6-0.7,1.1-1.3,1.4c-0.6,0.3-1.3,0.3-1.9,0.1
		C103.1,95.5,97.1,94.5,91.1,94.5z"/>
	<path class="st0" d="M83.1,172.4c-0.1,0-0.3,0-0.4,0c-12.9-2.1-22.7-14.1-22.7-28.1c0-15.7,12-28.4,26.6-28.4
		c1.4,0,2.5,1.1,2.5,2.5s-1.1,2.5-2.5,2.5c-11.9,0-21.6,10.5-21.6,23.4c0,11.5,7.9,21.5,18.5,23.2c1.4,0.2,2.3,1.5,2.1,2.9
		C85.4,171.6,84.3,172.4,83.1,172.4z"/>
</g>
</svg>
